<?xml version="1.0" encoding="UTF-8"?>
<svg xmlns="http://www.w3.org/2000/svg" xmlns:xlink="http://www.w3.org/1999/xlink" width="331pt" height="250pt" viewBox="0 0 331 250" version="1.1">
<g id="surface1">
<path style=" stroke:none;fill-rule:nonzero;fill:rgb(96.078431%,0%,34.117647%);fill-opacity:1;" d="M 283.546875 135.347656 C 283.546875 173.777344 261.023438 207.777344 226.496094 228.472656 C 204.359375 241.742188 177.285156 249.546875 148.050781 249.546875 C 109.105469 249.546875 79.394531 234.824219 57.050781 212.269531 C 36.453125 191.484375 22.109375 164.046875 12.550781 135.347656 C -30.109375 7.222656 41.160156 -27.730469 148.050781 21.148438 C 216.109375 52.277344 283.546875 72.28125 283.546875 135.347656 Z M 283.546875 135.347656 "/>
<path style=" stroke:none;fill-rule:nonzero;fill:rgb(94.901961%,94.901961%,94.901961%);fill-opacity:1;" d="M 226.496094 68.273438 L 226.496094 228.773438 C 204.359375 242.046875 177.285156 249.851562 148.050781 249.851562 C 109.105469 249.851562 79.394531 235.125 57.050781 212.570312 L 57.050781 68.273438 Z M 226.496094 68.273438 "/>
<path style=" stroke:none;fill-rule:nonzero;fill:rgb(24.705882%,23.921569%,33.72549%);fill-opacity:1;" d="M 73.347656 146.480469 C 82.21875 143.65625 91.425781 142.015625 100.726562 141.597656 C 105.386719 141.398438 110.054688 141.582031 114.683594 142.144531 C 119.269531 142.75 123.800781 143.71875 128.234375 145.042969 C 132.613281 146.3125 136.929688 147.777344 141.296875 149.09375 C 145.730469 150.449219 150.238281 151.550781 154.796875 152.390625 C 159.332031 153.210938 163.910156 153.757812 168.511719 154.023438 C 173.066406 154.289062 177.667969 154.34375 182.210938 153.855469 C 186.457031 153.449219 190.613281 152.394531 194.539062 150.730469 C 198.199219 149.132812 201.582031 146.960938 204.5625 144.300781 C 205.304688 143.636719 206.019531 142.941406 206.707031 142.21875 C 207.113281 141.796875 206.46875 141.152344 206.0625 141.574219 C 200.257812 147.648438 192.621094 151.414062 184.34375 152.671875 C 179.832031 153.355469 175.234375 153.394531 170.6875 153.21875 C 166.035156 153.039062 161.398438 152.570312 156.804688 151.816406 C 152.265625 151.0625 147.777344 150.042969 143.359375 148.753906 C 139.019531 147.496094 134.742188 146.046875 130.417969 144.742188 C 126.054688 143.371094 121.601562 142.308594 117.09375 141.566406 C 112.570312 140.875 107.996094 140.558594 103.421875 140.617188 C 94.277344 140.761719 85.195312 142.109375 76.402344 144.617188 C 75.296875 144.929688 74.199219 145.253906 73.105469 145.601562 C 72.546875 145.773438 72.785156 146.65625 73.347656 146.480469 Z M 73.347656 146.480469 "/>
<path style=" stroke:none;fill-rule:nonzero;fill:rgb(24.705882%,23.921569%,33.72549%);fill-opacity:1;" d="M 73.347656 169.566406 C 82.21875 166.742188 91.425781 165.101562 100.726562 164.683594 C 105.386719 164.484375 110.054688 164.667969 114.683594 165.230469 C 119.269531 165.835938 123.800781 166.804688 128.234375 168.128906 C 132.613281 169.398438 136.929688 170.863281 141.296875 172.179688 C 145.730469 173.535156 150.238281 174.636719 154.796875 175.476562 C 159.332031 176.296875 163.910156 176.84375 168.511719 177.113281 C 173.066406 177.375 177.667969 177.429688 182.210938 176.941406 C 186.457031 176.535156 190.613281 175.480469 194.539062 173.816406 C 198.199219 172.21875 201.582031 170.046875 204.5625 167.386719 C 205.304688 166.722656 206.019531 166.027344 206.707031 165.304688 C 207.113281 164.882812 206.46875 164.238281 206.0625 164.660156 C 200.257812 170.734375 192.621094 174.5 184.34375 175.757812 C 179.832031 176.441406 175.234375 176.480469 170.6875 176.304688 C 166.035156 176.125 161.398438 175.65625 156.804688 174.902344 C 152.265625 174.148438 147.777344 173.128906 143.359375 171.839844 C 139.019531 170.582031 134.742188 169.132812 130.417969 167.828125 C 126.054688 166.457031 121.601562 165.394531 117.09375 164.652344 C 112.570312 163.960938 107.996094 163.644531 103.421875 163.703125 C 94.277344 163.847656 85.195312 165.195312 76.402344 167.703125 C 75.296875 168.015625 74.199219 168.34375 73.105469 168.6875 C 72.546875 168.859375 72.785156 169.742188 73.347656 169.566406 Z M 73.347656 169.566406 "/>
<path style=" stroke:none;fill-rule:nonzero;fill:rgb(24.705882%,23.921569%,33.72549%);fill-opacity:1;" d="M 73.347656 125.519531 C 82.21875 122.695312 91.425781 121.054688 100.726562 120.636719 C 105.386719 120.4375 110.054688 120.621094 114.683594 121.183594 C 119.269531 121.789062 123.800781 122.761719 128.234375 124.085938 C 132.613281 125.351562 136.929688 126.816406 141.296875 128.132812 C 145.730469 129.488281 150.238281 130.589844 154.796875 131.429688 C 159.332031 132.25 163.910156 132.796875 168.511719 133.066406 C 173.066406 133.332031 177.667969 133.382812 182.210938 132.894531 C 186.457031 132.488281 190.613281 131.433594 194.539062 129.769531 C 198.199219 128.171875 201.582031 126 204.5625 123.339844 C 205.304688 122.675781 206.019531 121.980469 206.707031 121.261719 C 207.113281 120.835938 206.46875 120.191406 206.0625 120.617188 C 200.257812 126.6875 192.621094 130.453125 184.34375 131.710938 C 179.832031 132.394531 175.234375 132.4375 170.6875 132.257812 C 166.035156 132.078125 161.398438 131.609375 156.804688 130.855469 C 152.265625 130.101562 147.777344 129.082031 143.359375 127.796875 C 139.019531 126.539062 134.742188 125.085938 130.417969 123.78125 C 126.054688 122.410156 121.601562 121.347656 117.09375 120.605469 C 112.570312 119.914062 107.996094 119.597656 103.421875 119.65625 C 94.277344 119.800781 85.195312 121.148438 76.402344 123.660156 C 75.296875 123.96875 74.199219 124.296875 73.105469 124.640625 C 72.546875 124.816406 72.785156 125.695312 73.347656 125.519531 Z M 73.347656 125.519531 "/>
<path style=" stroke:none;fill-rule:nonzero;fill:rgb(24.705882%,23.921569%,33.72549%);fill-opacity:1;" d="M 72.261719 85.890625 C 74.464844 84.914062 76.992188 85.082031 79.277344 85.648438 C 81.746094 86.261719 84.066406 87.324219 86.496094 88.058594 C 90.84375 89.351562 95.457031 89.441406 99.851562 88.308594 C 102.324219 87.679688 104.683594 86.667969 106.84375 85.3125 C 107.339844 85 106.882812 84.210938 106.386719 84.523438 C 102.53125 86.933594 98.078125 88.203125 93.535156 88.191406 C 91.253906 88.1875 88.988281 87.851562 86.804688 87.199219 C 84.394531 86.476562 82.09375 85.425781 79.648438 84.804688 C 77.0625 84.144531 74.289062 84 71.800781 85.101562 C 71.265625 85.339844 71.730469 86.125 72.261719 85.890625 Z M 72.261719 85.890625 "/>
<path style=" stroke:none;fill-rule:nonzero;fill:rgb(24.705882%,23.921569%,33.72549%);fill-opacity:1;" d="M 153.921875 211.652344 C 153.921875 219.367188 147.664062 225.625 139.953125 225.625 C 132.238281 225.625 125.984375 219.367188 125.984375 211.652344 C 125.984375 203.933594 132.238281 197.679688 139.953125 197.679688 C 147.664062 197.679688 153.921875 203.933594 153.921875 211.652344 Z M 153.921875 211.652344 "/>
<path style=" stroke:none;fill-rule:nonzero;fill:rgb(94.901961%,94.901961%,94.901961%);fill-opacity:1;" d="M 72.234375 32.125 C 72.234375 36.320312 68.832031 39.71875 64.640625 39.71875 C 60.449219 39.71875 57.050781 36.320312 57.050781 32.125 C 57.050781 27.929688 60.449219 24.53125 64.640625 24.53125 C 68.832031 24.53125 72.234375 27.929688 72.234375 32.125 Z M 72.234375 32.125 "/>
<path style=" stroke:none;fill-rule:nonzero;fill:rgb(94.901961%,94.901961%,94.901961%);fill-opacity:1;" d="M 136.308594 53.691406 C 136.308594 56.542969 133.996094 58.855469 131.144531 58.855469 C 128.292969 58.855469 125.984375 56.542969 125.984375 53.691406 C 125.984375 50.839844 128.292969 48.527344 131.144531 48.527344 C 133.996094 48.527344 136.308594 50.839844 136.308594 53.691406 Z M 136.308594 53.691406 "/>
<path style=" stroke:none;fill-rule:nonzero;fill:rgb(94.901961%,94.901961%,94.901961%);fill-opacity:1;" d="M 52.496094 103.207031 C 52.496094 106.058594 50.183594 108.371094 47.332031 108.371094 C 44.480469 108.371094 42.167969 106.058594 42.167969 103.207031 C 42.167969 100.355469 44.480469 98.042969 47.332031 98.042969 C 50.183594 98.042969 52.496094 100.355469 52.496094 103.207031 Z M 52.496094 103.207031 "/>
<path style=" stroke:none;fill-rule:nonzero;fill:rgb(24.705882%,23.921569%,33.72549%);fill-opacity:1;" d="M 25.976562 64.84375 L 26.546875 64.84375 L 26.546875 166.679688 L 25.976562 166.679688 Z M 25.976562 64.84375 "/>
<path style=" stroke:none;fill-rule:nonzero;fill:rgb(24.705882%,23.921569%,33.72549%);fill-opacity:1;" d="M 37.472656 132.609375 C 37.472656 118.613281 32.503906 107.269531 26.371094 107.269531 C 20.242188 107.269531 15.269531 118.613281 15.269531 132.609375 C 15.269531 146.605469 20.242188 157.953125 26.371094 157.953125 C 32.503906 157.953125 37.472656 146.605469 37.472656 132.609375 Z M 37.472656 132.609375 "/>
<path style=" stroke:none;fill-rule:nonzero;fill:rgb(24.705882%,23.921569%,33.72549%);fill-opacity:1;" d="M 37.472656 74.808594 C 37.472656 60.8125 32.503906 49.46875 26.371094 49.46875 C 20.242188 49.46875 15.269531 60.8125 15.269531 74.808594 C 15.269531 88.804688 20.242188 100.152344 26.371094 100.152344 C 32.503906 100.152344 37.472656 88.804688 37.472656 74.808594 Z M 37.472656 74.808594 "/>
<path style=" stroke:none;fill-rule:nonzero;fill:rgb(24.705882%,23.921569%,33.72549%);fill-opacity:1;" d="M 26.644531 54.105469 L 26.101562 53.941406 C 26.132812 53.828125 29.480469 42.355469 23.984375 34.96875 C 20.882812 30.796875 15.554688 28.683594 8.15625 28.683594 L 8.15625 28.113281 C 15.746094 28.113281 21.226562 30.304688 24.445312 34.628906 C 30.109375 42.246094 26.679688 53.988281 26.644531 54.105469 Z M 26.644531 54.105469 "/>
<path style=" stroke:none;fill-rule:nonzero;fill:rgb(24.705882%,23.921569%,33.72549%);fill-opacity:1;" d="M 15.269531 28.398438 C 15.269531 32.328125 12.085938 35.515625 8.15625 35.515625 C 4.226562 35.515625 1.039062 32.328125 1.039062 28.398438 C 1.039062 24.464844 4.226562 21.277344 8.15625 21.277344 C 12.085938 21.277344 15.269531 24.464844 15.269531 28.398438 Z M 15.269531 28.398438 "/>
<path style=" stroke:none;fill-rule:nonzero;fill:rgb(18.431373%,18.039216%,25.490196%);fill-opacity:1;" d="M 234.050781 189.757812 L 228.726562 238.753906 L 265.460938 238.753906 L 267.058594 235.027344 L 269.1875 238.753906 L 303.796875 238.753906 C 303.796875 238.753906 301.132812 188.160156 296.34375 186.5625 C 291.550781 184.964844 234.050781 189.757812 234.050781 189.757812 Z M 234.050781 189.757812 "/>
<path style=" stroke:none;fill-rule:nonzero;fill:rgb(100%,72.156863%,72.156863%);fill-opacity:1;" d="M 284.097656 63.535156 C 284.097656 73.828125 275.753906 82.175781 265.460938 82.175781 C 255.171875 82.175781 246.828125 73.828125 246.828125 63.535156 C 246.828125 53.238281 255.171875 44.894531 265.460938 44.894531 C 275.753906 44.894531 284.097656 53.238281 284.097656 63.535156 Z M 284.097656 63.535156 "/>
<path style=" stroke:none;fill-rule:nonzero;fill:rgb(100%,72.156863%,72.156863%);fill-opacity:1;" d="M 254.8125 75.25 C 254.8125 75.25 256.410156 92.292969 254.8125 93.359375 C 253.21875 94.425781 280.371094 93.890625 280.371094 93.890625 C 280.371094 93.890625 276.644531 78.445312 280.371094 70.992188 Z M 254.8125 75.25 "/>
<path style=" stroke:none;fill-rule:nonzero;fill:rgb(81.568627%,80.392157%,88.235294%);fill-opacity:1;" d="M 264.398438 89.632812 C 264.398438 89.632812 278.097656 91.765625 279.234375 87.503906 L 286.226562 97.085938 L 286.757812 192.953125 C 286.757812 192.953125 229.792969 199.875 227.660156 188.691406 C 225.53125 177.507812 249.488281 89.097656 249.488281 89.097656 L 255.523438 88.707031 C 255.523438 88.707031 263.332031 89.632812 264.398438 89.632812 Z M 264.398438 89.632812 "/>
<path style=" stroke:none;fill-rule:nonzero;fill:rgb(24.705882%,23.921569%,33.72549%);fill-opacity:1;" d="M 255.429688 84.335938 L 246.296875 87.5 L 220.207031 93.890625 L 221.273438 157.800781 C 221.273438 157.800781 198.910156 221.710938 209.027344 226.503906 C 219.144531 231.296875 233.519531 220.113281 237.777344 212.125 C 242.035156 204.136719 256.945312 93.359375 256.945312 91.230469 C 256.945312 89.097656 255.429688 84.335938 255.429688 84.335938 Z M 255.429688 84.335938 "/>
<path style=" stroke:none;fill-rule:nonzero;fill:rgb(24.705882%,23.921569%,33.72549%);fill-opacity:1;" d="M 278.890625 84.335938 L 282.5 87.5 L 308.054688 99.21875 L 295.277344 163.660156 C 295.277344 163.660156 312.316406 222.242188 305.925781 225.4375 C 299.535156 228.632812 289.953125 237.6875 287.824219 232.363281 C 285.695312 227.035156 273.152344 90.222656 278.890625 84.335938 Z M 278.890625 84.335938 "/>
<path style=" stroke:none;fill-rule:nonzero;fill:rgb(100%,72.156863%,72.156863%);fill-opacity:1;" d="M 293.679688 169.519531 C 293.679688 169.519531 269.722656 159.398438 269.1875 168.453125 C 268.65625 177.507812 296.34375 183.898438 296.34375 181.234375 C 296.34375 178.570312 293.679688 169.519531 293.679688 169.519531 Z M 293.679688 169.519531 "/>
<path style=" stroke:none;fill-rule:nonzero;fill:rgb(100%,72.156863%,72.156863%);fill-opacity:1;" d="M 235.113281 165.789062 C 235.113281 165.789062 262.800781 186.5625 252.152344 191.886719 C 241.503906 197.210938 227.660156 173.246094 227.660156 173.246094 Z M 235.113281 165.789062 "/>
<path style=" stroke:none;fill-rule:nonzero;fill:rgb(18.431373%,18.039216%,25.490196%);fill-opacity:1;" d="M 273.734375 36.230469 C 273.914062 35.851562 274.304688 35.617188 274.722656 35.644531 C 266.191406 35.132812 257.207031 36.125 250.070312 40.828125 C 248.070312 42.148438 246.203125 43.757812 243.929688 44.5 L 245.777344 45.949219 L 243.570312 46.621094 L 246.816406 48.722656 C 246.148438 49.480469 245.125 49.824219 244.136719 49.621094 C 245.546875 50.03125 246.585938 51.289062 247.113281 52.660156 C 247.640625 54.035156 247.738281 55.53125 247.828125 57 C 248.371094 54.878906 250.683594 53.632812 252.867188 53.503906 C 255.050781 53.378906 257.179688 54.101562 259.304688 54.617188 C 263.933594 55.742188 268.738281 55.925781 273.441406 55.160156 C 271.84375 58.367188 273.191406 62.1875 274.542969 65.5 L 277.25 72.117188 C 278.753906 72.269531 279.8125 70.773438 280.945312 69.777344 C 281.976562 68.863281 277.871094 76.875 278.507812 76.582031 C 279.332031 76.203125 288.046875 66.574219 288.457031 65.761719 C 290.320312 62.050781 291.4375 57.914062 291.269531 53.765625 C 291.101562 49.617188 289.582031 45.46875 286.722656 42.457031 C 284.785156 40.414062 282.097656 40.054688 280.121094 38.359375 C 279.339844 37.6875 279.339844 37.167969 278.269531 36.777344 C 277.914062 36.648438 273.792969 36.097656 273.734375 36.230469 Z M 273.734375 36.230469 "/>
<path style=" stroke:none;fill-rule:nonzero;fill:rgb(24.705882%,23.921569%,33.72549%);fill-opacity:1;" d="M 223.933594 95.488281 L 220.207031 93.890625 L 190.394531 142.890625 C 190.394531 142.890625 185.070312 155.671875 194.652344 161.53125 C 204.234375 167.386719 226.597656 184.964844 226.597656 184.964844 L 239.375 165.257812 C 239.375 165.257812 213.285156 153.007812 214.882812 148.214844 C 216.480469 143.421875 225 130.640625 225 130.640625 Z M 223.933594 95.488281 "/>
<path style=" stroke:none;fill-rule:nonzero;fill:rgb(24.705882%,23.921569%,33.72549%);fill-opacity:1;" d="M 301.132812 98.152344 L 308.054688 99.21875 C 308.054688 99.21875 336.804688 155.671875 329.882812 166.324219 C 322.960938 176.972656 294.746094 191.886719 294.746094 191.886719 C 294.746094 191.886719 294.210938 174.3125 289.421875 167.921875 L 305.925781 161.53125 L 296.875 126.378906 Z M 301.132812 98.152344 "/>
</g>
</svg>
