<?xml version="1.0" encoding="UTF-8"?>
<svg xmlns="http://www.w3.org/2000/svg" xmlns:xlink="http://www.w3.org/1999/xlink" width="306pt" height="200pt" viewBox="0 0 306 200" version="1.1">
<defs>
<filter id="alpha" filterUnits="objectBoundingBox" x="0%" y="0%" width="100%" height="100%">
  <feColorMatrix type="matrix" in="SourceGraphic" values="0 0 0 0 1 0 0 0 0 1 0 0 0 0 1 0 0 0 1 0"/>
</filter>
<mask id="mask0">
  <g filter="url(#alpha)">
<rect x="0" y="0" width="306" height="200" style="fill:rgb(0%,0%,0%);fill-opacity:0.101961;stroke:none;"/>
  </g>
</mask>
<clipPath id="clip1">
  <rect x="0" y="0" width="306" height="200"/>
</clipPath>
<g id="surface5" clip-path="url(#clip1)">
<path style=" stroke:none;fill-rule:nonzero;fill:rgb(79.607843%,14.901961%,97.647059%);fill-opacity:1;" d="M 158.273438 35.976562 C 138.949219 39.242188 119.648438 37.84375 101.082031 35.804688 C 82.515625 33.765625 63.996094 31.105469 44.664062 31.90625 C 32.226562 32.421875 18.375 34.890625 9.6875 42.058594 C 1.328125 48.953125 0.0273438 58.253906 0.0117188 66.652344 C -0.0117188 72.96875 0.535156 79.507812 5.007812 84.539062 C 8.117188 88.03125 12.902344 90.53125 16.507812 93.753906 C 29.046875 104.945312 25.234375 122.570312 17.007812 137.554688 C 13.144531 144.582031 8.421875 151.496094 5.792969 158.691406 C 3.164062 165.886719 2.8125 173.597656 7.519531 179.464844 C 12.183594 185.28125 21.203125 188.5625 30.609375 190.261719 C 49.710938 193.710938 70.992188 191.570312 91.582031 188.664062 C 137.15625 182.210938 182.257812 172.152344 227.261719 162.117188 C 243.910156 158.402344 260.636719 154.667969 276.679688 149.3125 C 285.585938 146.332031 294.660156 142.625 300.414062 136.847656 C 307.726562 129.53125 307.910156 119.523438 300.863281 113.542969 C 289.039062 103.515625 262.28125 105.738281 253.136719 94.277344 C 248.105469 87.964844 250.292969 79.394531 254.300781 71.820312 C 262.886719 55.582031 279.484375 39.539062 277.332031 23.347656 C 275.847656 12.238281 264.527344 3.042969 249.351562 0.648438 C 233.445312 -1.863281 213.015625 2.898438 203.859375 14.078125 C 194.441406 25.597656 175.339844 33.082031 158.273438 35.976562 Z M 158.273438 35.976562 "/>
</g>
<mask id="mask1">
  <g filter="url(#alpha)">
<rect x="0" y="0" width="306" height="200" style="fill:rgb(0%,0%,0%);fill-opacity:0.101961;stroke:none;"/>
  </g>
</mask>
<clipPath id="clip2">
  <rect x="0" y="0" width="306" height="200"/>
</clipPath>
<g id="surface8" clip-path="url(#clip2)">
<path style=" stroke:none;fill-rule:nonzero;fill:rgb(0%,0%,0%);fill-opacity:1;" d="M 97.488281 97.355469 L 174.238281 97.355469 L 174.238281 115.140625 L 97.488281 115.140625 Z M 97.488281 97.355469 "/>
</g>
<mask id="mask2">
  <g filter="url(#alpha)">
<rect x="0" y="0" width="306" height="200" style="fill:rgb(0%,0%,0%);fill-opacity:0.101961;stroke:none;"/>
  </g>
</mask>
<clipPath id="clip3">
  <rect x="0" y="0" width="306" height="200"/>
</clipPath>
<g id="surface11" clip-path="url(#clip3)">
<path style=" stroke:none;fill-rule:nonzero;fill:rgb(0%,0%,0%);fill-opacity:1;" d="M 178.332031 100.195312 L 208.582031 100.195312 L 208.582031 159.066406 L 178.332031 159.066406 Z M 178.332031 100.195312 "/>
</g>
<mask id="mask3">
  <g filter="url(#alpha)">
<rect x="0" y="0" width="306" height="200" style="fill:rgb(0%,0%,0%);fill-opacity:0.101961;stroke:none;"/>
  </g>
</mask>
<clipPath id="clip4">
  <rect x="0" y="0" width="306" height="200"/>
</clipPath>
<g id="surface14" clip-path="url(#clip4)">
<path style=" stroke:none;fill-rule:nonzero;fill:rgb(0%,0%,0%);fill-opacity:1;" d="M 178.332031 145.191406 L 208.582031 145.191406 L 208.582031 172.941406 L 178.332031 172.941406 Z M 178.332031 145.191406 "/>
</g>
<linearGradient id="linear0" gradientUnits="userSpaceOnUse" x1="421.41" y1="548.67" x2="423.73" y2="548.67" gradientTransform="matrix(0.270796,0,0,0.271003,-9.467044,-21.932249)">
<stop offset="0" style="stop-color:rgb(50.196078%,50.196078%,50.196078%);stop-opacity:0.25098;"/>
<stop offset="0.54" style="stop-color:rgb(50.196078%,50.196078%,50.196078%);stop-opacity:0.121569;"/>
<stop offset="1" style="stop-color:rgb(50.196078%,50.196078%,50.196078%);stop-opacity:0.101961;"/>
</linearGradient>
<mask id="mask4">
  <g filter="url(#alpha)">
<rect x="0" y="0" width="306" height="200" style="fill:rgb(0%,0%,0%);fill-opacity:0.101961;stroke:none;"/>
  </g>
</mask>
<clipPath id="clip5">
  <rect x="0" y="0" width="306" height="200"/>
</clipPath>
<g id="surface17" clip-path="url(#clip5)">
<path style=" stroke:none;fill-rule:nonzero;fill:rgb(0%,0%,0%);fill-opacity:1;" d="M 104.664062 180.453125 C 104.664062 180.859375 104.613281 181.261719 104.515625 181.65625 C 104.445312 182.308594 103.871094 182.789062 103.214844 182.738281 C 101.117188 182.976562 99.0625 182.152344 97.113281 181.339844 L 93.320312 179.765625 C 92.878906 179.578125 92.429688 179.394531 92.003906 179.164062 C 91.199219 178.730469 90.484375 178.144531 89.894531 177.4375 C 89.773438 177.3125 89.683594 177.15625 89.644531 176.984375 C 89.574219 176.507812 90.132812 176.222656 90.488281 175.898438 C 90.589844 175.800781 90.679688 175.691406 90.757812 175.570312 C 91.800781 175.792969 93.101562 176.453125 93.898438 176.707031 C 94.699219 176.925781 95.46875 177.246094 96.183594 177.664062 C 97.179688 178.304688 97.898438 179.289062 98.742188 180.101562 C 99.589844 180.914062 100.679688 181.65625 101.855469 181.554688 C 102.480469 181.460938 103.082031 181.253906 103.628906 180.941406 Z M 104.664062 180.453125 "/>
</g>
<mask id="mask5">
  <g filter="url(#alpha)">
<rect x="0" y="0" width="306" height="200" style="fill:rgb(0%,0%,0%);fill-opacity:0.0509804;stroke:none;"/>
  </g>
</mask>
<clipPath id="clip6">
  <rect x="0" y="0" width="306" height="200"/>
</clipPath>
<g id="surface20" clip-path="url(#clip6)">
<path style=" stroke:none;fill-rule:nonzero;fill:rgb(0%,0%,0%);fill-opacity:1;" d="M 100.226562 141.941406 C 100.371094 142.445312 100.1875 142.984375 99.765625 143.296875 C 99.410156 143.515625 98.953125 143.484375 98.601562 143.722656 C 98.167969 144.03125 98.105469 144.636719 98.027344 145.164062 C 97.757812 146.96875 96.859375 148.609375 96.09375 150.269531 C 95.328125 151.933594 94.679688 153.746094 94.964844 155.550781 C 95.15625 156.773438 95.757812 158.082031 95.191406 159.183594 C 95.054688 159.457031 94.847656 159.695312 94.691406 159.960938 C 93.921875 161.25 94.359375 162.882812 94.328125 164.386719 C 94.339844 164.550781 94.304688 164.71875 94.222656 164.863281 C 94.105469 165.003906 93.960938 165.117188 93.796875 165.195312 C 93.238281 165.605469 92.898438 166.246094 92.871094 166.9375 C 92.847656 167.621094 92.933594 168.300781 93.117188 168.960938 C 93.144531 169.226562 93.261719 169.472656 93.449219 169.664062 C 93.664062 169.804688 93.917969 169.878906 94.175781 169.871094 C 95.878906 170.007812 97.546875 170.414062 99.121094 171.074219 C 100.148438 171.5 101.144531 172.039062 102.238281 172.242188 C 102.449219 172.308594 102.679688 172.285156 102.875 172.175781 C 103.011719 172.050781 103.109375 171.886719 103.144531 171.707031 C 103.566406 170.324219 103.992188 168.898438 103.847656 167.464844 C 103.785156 166.84375 103.621094 166.242188 103.578125 165.625 C 103.386719 163.183594 105.035156 160.984375 105.558594 158.578125 C 105.792969 157.492188 105.792969 156.371094 105.960938 155.277344 C 106.417969 152.277344 108.070312 149.585938 108.707031 146.617188 C 108.792969 146.066406 108.933594 145.519531 109.117188 144.992188 C 109.589844 143.84375 110.6875 142.910156 110.710938 141.667969 C 110.726562 141.394531 110.65625 141.121094 110.507812 140.890625 C 110.25 140.609375 109.914062 140.421875 109.539062 140.347656 C 108.070312 139.945312 106.570312 139.640625 105.058594 139.445312 C 104.363281 139.308594 103.65625 139.257812 102.953125 139.296875 C 102.035156 139.40625 101.15625 139.71875 100.375 140.207031 C 99.328125 140.855469 100 141.007812 100.226562 141.941406 Z M 100.226562 141.941406 "/>
</g>
<mask id="mask6">
  <g filter="url(#alpha)">
<rect x="0" y="0" width="306" height="200" style="fill:rgb(0%,0%,0%);fill-opacity:0.101961;stroke:none;"/>
  </g>
</mask>
<clipPath id="clip7">
  <rect x="0" y="0" width="306" height="200"/>
</clipPath>
<g id="surface23" clip-path="url(#clip7)">
<path style=" stroke:none;fill-rule:nonzero;fill:rgb(0%,0%,0%);fill-opacity:1;" d="M 93.097656 151.136719 L 91.105469 151.714844 L 91 149.949219 L 92.964844 149.257812 Z M 93.097656 151.136719 "/>
</g>
<mask id="mask7">
  <g filter="url(#alpha)">
<rect x="0" y="0" width="306" height="200" style="fill:rgb(0%,0%,0%);fill-opacity:0.101961;stroke:none;"/>
  </g>
</mask>
<clipPath id="clip8">
  <rect x="0" y="0" width="306" height="200"/>
</clipPath>
<g id="surface26" clip-path="url(#clip8)">
<path style=" stroke:none;fill-rule:nonzero;fill:rgb(0%,0%,0%);fill-opacity:1;" d="M 106.449219 144.757812 C 100.964844 146.410156 95.273438 148.21875 95.273438 148.21875 C 95.273438 148.21875 90.082031 150.03125 87.882812 148.21875 C 87.605469 148 87.296875 147.828125 86.964844 147.710938 C 87.25 147.914062 87.558594 148.085938 87.882812 148.21875 L 73.828125 143.683594 L 74.488281 141.859375 L 100.007812 140.984375 L 106.367188 144.554688 Z M 106.449219 144.757812 "/>
</g>
<mask id="mask8">
  <g filter="url(#alpha)">
<rect x="0" y="0" width="306" height="200" style="fill:rgb(0%,0%,0%);fill-opacity:0.101961;stroke:none;"/>
  </g>
</mask>
<clipPath id="clip9">
  <rect x="0" y="0" width="306" height="200"/>
</clipPath>
<g id="surface29" clip-path="url(#clip9)">
<path style=" stroke:none;fill-rule:nonzero;fill:rgb(0%,0%,0%);fill-opacity:1;" d="M 137.703125 176.5 C 137.011719 177.476562 135.933594 178.109375 134.742188 178.242188 C 133.566406 178.390625 132.347656 178.09375 131.207031 178.417969 C 130.847656 178.476562 130.542969 178.710938 130.394531 179.042969 C 130.367188 179.265625 130.347656 179.484375 130.34375 179.707031 C 130.210938 180.429688 129.257812 180.59375 128.519531 180.589844 L 125.472656 180.570312 C 124.835938 180.570312 124.136719 180.535156 123.679688 180.09375 C 123.234375 179.597656 123.222656 178.847656 123.652344 178.339844 C 125.414062 178.265625 127.144531 178.339844 128.898438 177.976562 C 129.609375 177.832031 130.3125 177.640625 131.03125 177.542969 C 132.59375 177.320312 134.253906 177.507812 135.683594 176.847656 C 136.878906 176.304688 137.734375 175.203125 138.242188 173.972656 C 138.386719 174.851562 138.195312 175.753906 137.703125 176.5 Z M 137.703125 176.5 "/>
</g>
<mask id="mask9">
  <g filter="url(#alpha)">
<rect x="0" y="0" width="306" height="200" style="fill:rgb(0%,0%,0%);fill-opacity:0.101961;stroke:none;"/>
  </g>
</mask>
<clipPath id="clip10">
  <rect x="0" y="0" width="306" height="200"/>
</clipPath>
<g id="surface32" clip-path="url(#clip10)">
<path style=" stroke:none;fill-rule:nonzero;fill:rgb(0%,0%,0%);fill-opacity:1;" d="M 115.820312 141.074219 C 116.203125 140.769531 116.535156 140.40625 116.800781 139.992188 C 117.070312 139.578125 117.175781 139.078125 117.101562 138.589844 C 117.316406 139.84375 116.925781 141.121094 116.046875 142.039062 C 115.367188 142.734375 114.09375 143.417969 113.097656 143.179688 C 113.238281 142.382812 115.1875 141.613281 115.820312 141.074219 Z M 115.820312 141.074219 "/>
</g>
<mask id="mask10">
  <g filter="url(#alpha)">
<rect x="0" y="0" width="306" height="200" style="fill:rgb(0%,0%,0%);fill-opacity:0.101961;stroke:none;"/>
  </g>
</mask>
<clipPath id="clip11">
  <rect x="0" y="0" width="306" height="200"/>
</clipPath>
<g id="surface35" clip-path="url(#clip11)">
<path style=" stroke:none;fill-rule:nonzero;fill:rgb(0%,0%,0%);fill-opacity:1;" d="M 98.898438 127.570312 C 98.734375 128.160156 98.28125 128.625 97.699219 128.808594 C 97.121094 128.988281 96.515625 129.058594 95.914062 129.019531 L 95.371094 129.019531 C 88.265625 128.863281 81.085938 127.285156 74.144531 128.789062 C 73.308594 128.960938 72.488281 129.203125 71.691406 129.511719 C 70.675781 129.914062 69.726562 130.460938 68.871094 131.136719 L 68.871094 131.101562 C 69.25 129.175781 70.261719 128.703125 71.945312 127.824219 C 73.886719 126.804688 75.910156 125.960938 78 125.304688 C 82.0625 124.03125 86.433594 123.574219 90.628906 124.507812 C 92.585938 124.945312 94.472656 125.671875 96.433594 126.097656 C 97.207031 126.265625 97.980469 126.386719 98.765625 126.484375 C 98.917969 126.824219 98.964844 127.203125 98.898438 127.570312 Z M 98.898438 127.570312 "/>
</g>
<mask id="mask11">
  <g filter="url(#alpha)">
<rect x="0" y="0" width="306" height="200" style="fill:rgb(0%,0%,0%);fill-opacity:0.101961;stroke:none;"/>
  </g>
</mask>
<clipPath id="clip12">
  <rect x="0" y="0" width="306" height="200"/>
</clipPath>
<g id="surface38" clip-path="url(#clip12)">
<path style=" stroke:none;fill-rule:nonzero;fill:rgb(0%,0%,0%);fill-opacity:1;" d="M 76.027344 110.90625 C 75.214844 113.480469 72.996094 115.804688 70.296875 115.914062 C 70.097656 115.9375 69.902344 115.902344 69.726562 115.8125 C 69.386719 115.601562 69.378906 115.105469 69.515625 114.730469 C 69.652344 114.351562 69.894531 114.011719 69.933594 113.617188 C 69.941406 113.539062 69.9375 113.457031 69.917969 113.375 C 71.347656 111.355469 72.738281 109.3125 73.289062 106.917969 C 73.398438 106.507812 73.433594 106.078125 73.386719 105.652344 C 73.316406 105.164062 73.070312 104.722656 72.933594 104.253906 C 72.695312 103.417969 72.804688 102.535156 72.875 101.667969 C 73.15625 97.863281 72.519531 94.042969 71.023438 90.535156 C 70.65625 89.6875 70.238281 88.832031 70.113281 87.929688 C 70.300781 87.570312 70.617188 87.296875 71.003906 87.167969 C 71.890625 86.871094 72.472656 87.332031 72.601562 88.175781 C 72.820312 89.609375 72.695312 91.074219 72.980469 92.511719 C 73.242188 93.859375 73.640625 95.171875 74.167969 96.4375 C 74.648438 97.582031 75.230469 98.6875 75.597656 99.871094 C 75.875 100.847656 76.074219 101.84375 76.191406 102.855469 C 76.5625 105.542969 76.847656 108.328125 76.027344 110.90625 Z M 76.027344 110.90625 "/>
</g>
<mask id="mask12">
  <g filter="url(#alpha)">
<rect x="0" y="0" width="306" height="200" style="fill:rgb(0%,0%,0%);fill-opacity:0.101961;stroke:none;"/>
  </g>
</mask>
<clipPath id="clip13">
  <rect x="0" y="0" width="306" height="200"/>
</clipPath>
<g id="surface41" clip-path="url(#clip13)">
<path style=" stroke:none;fill-rule:nonzero;fill:rgb(0%,0%,0%);fill-opacity:1;" d="M 98.898438 127.179688 C 98.734375 127.773438 98.28125 128.242188 97.699219 128.425781 C 97.121094 128.601562 96.515625 128.671875 95.914062 128.632812 L 95.371094 128.632812 C 93.058594 127.09375 90.277344 126.421875 87.519531 126.734375 C 86.636719 126.839844 85.753906 127.046875 84.871094 126.964844 C 83.085938 126.800781 81.640625 125.519531 80.050781 124.695312 C 76.351562 122.867188 71.910156 123.46875 68.832031 126.21875 L 68.675781 126.355469 C 68.65625 126.246094 68.640625 126.136719 68.632812 126.027344 C 68.585938 125.046875 68.933594 124.484375 69.734375 123.957031 C 72.113281 122.386719 75.011719 121.304688 77.726562 120.496094 C 79.167969 120.039062 80.660156 119.75 82.167969 119.632812 C 84.300781 119.507812 86.433594 119.90625 88.511719 120.40625 C 91.0625 121.039062 93.589844 121.871094 95.855469 123.207031 C 96.957031 123.867188 98.039062 124.679688 98.636719 125.835938 C 98.875 126.242188 98.96875 126.714844 98.898438 127.179688 Z M 98.898438 127.179688 "/>
</g>
<mask id="mask13">
  <g filter="url(#alpha)">
<rect x="0" y="0" width="306" height="200" style="fill:rgb(0%,0%,0%);fill-opacity:0.101961;stroke:none;"/>
  </g>
</mask>
<clipPath id="clip14">
  <rect x="0" y="0" width="306" height="200"/>
</clipPath>
<g id="surface44" clip-path="url(#clip14)">
<path style=" stroke:none;fill-rule:nonzero;fill:rgb(0%,0%,0%);fill-opacity:1;" d="M 100.96875 113.792969 C 101.316406 118.3125 103.523438 122.601562 104.113281 127.035156 C 102.933594 126.035156 101.289062 125.03125 101.070312 123.867188 C 100.824219 122.609375 100.046875 120.960938 99.914062 119.691406 C 99.785156 118.421875 100.675781 116.867188 99.742188 115.996094 C 99.289062 115.570312 100.496094 115.6875 100.054688 115.253906 C 99.054688 114.277344 98.808594 112.78125 98.746094 111.390625 C 98.640625 108.929688 98.953125 106.441406 98.5 104.023438 C 98.230469 102.527344 97.664062 101.105469 97.210938 99.65625 C 96.683594 97.96875 96.304688 96.238281 95.925781 94.507812 C 95.554688 92.96875 95.28125 91.40625 95.113281 89.828125 C 95 88.472656 95.050781 87.039062 95.65625 85.800781 C 96.261719 84.566406 97.480469 83.5625 98.851562 83.582031 C 103.433594 83.640625 102.644531 89.859375 103.648438 92.730469 C 104.054688 93.875 104.597656 94.980469 104.816406 96.171875 C 104.898438 96.640625 104.941406 97.113281 104.945312 97.589844 C 104.339844 99.164062 103.226562 100.492188 102.511719 102.027344 C 101.609375 103.96875 101.386719 106.148438 101.1875 108.285156 C 101 110.121094 100.832031 111.960938 100.96875 113.792969 Z M 100.96875 113.792969 "/>
</g>
<mask id="mask14">
  <g filter="url(#alpha)">
<rect x="0" y="0" width="306" height="200" style="fill:rgb(0%,0%,0%);fill-opacity:0.101961;stroke:none;"/>
  </g>
</mask>
<clipPath id="clip15">
  <rect x="0" y="0" width="306" height="200"/>
</clipPath>
<g id="surface47" clip-path="url(#clip15)">
<path style=" stroke:none;fill-rule:nonzero;fill:rgb(0%,0%,0%);fill-opacity:1;" d="M 90.890625 93.722656 C 91.316406 94.222656 91.867188 94.773438 92.515625 94.675781 C 92.414062 94.835938 92.199219 94.886719 92.035156 94.789062 C 91.878906 94.6875 91.753906 94.542969 91.675781 94.375 L 90.75 92.808594 C 90.628906 92.605469 89.789062 91.421875 89.582031 92.105469 C 89.5 92.394531 90.679688 93.476562 90.890625 93.722656 Z M 90.890625 93.722656 "/>
</g>
<mask id="mask15">
  <g filter="url(#alpha)">
<rect x="0" y="0" width="306" height="200" style="fill:rgb(0%,0%,0%);fill-opacity:0.101961;stroke:none;"/>
  </g>
</mask>
<clipPath id="clip16">
  <rect x="0" y="0" width="306" height="200"/>
</clipPath>
<g id="surface50" clip-path="url(#clip16)">
<path style=" stroke:none;fill-rule:nonzero;fill:rgb(0%,0%,0%);fill-opacity:1;" d="M 90.390625 97.621094 C 90.367188 97.109375 90.148438 96.625 89.789062 96.265625 C 89.460938 95.96875 89.082031 95.742188 88.667969 95.589844 C 87.652344 95.171875 86.453125 94.835938 85.351562 94.890625 C 85.75 95.476562 87.035156 95.828125 87.679688 96.15625 C 88.59375 96.628906 89.5 97.117188 90.390625 97.621094 Z M 90.390625 97.621094 "/>
</g>
<mask id="mask16">
  <g filter="url(#alpha)">
<rect x="0" y="0" width="306" height="200" style="fill:rgb(0%,0%,0%);fill-opacity:0.101961;stroke:none;"/>
  </g>
</mask>
<clipPath id="clip17">
  <rect x="0" y="0" width="306" height="200"/>
</clipPath>
<g id="surface53" clip-path="url(#clip17)">
<path style=" stroke:none;fill-rule:nonzero;fill:rgb(0%,0%,0%);fill-opacity:1;" d="M 93.277344 108.722656 C 93.089844 110.109375 91.953125 111.160156 90.804688 111.972656 C 89.65625 112.785156 88.367188 113.484375 87.617188 114.660156 C 87.097656 115.472656 86.867188 116.417969 86.425781 117.265625 C 85.9375 118.199219 85.207031 118.988281 84.625 119.863281 C 84.042969 120.742188 83.589844 121.792969 83.769531 122.832031 C 83.773438 122.929688 83.820312 123.019531 83.894531 123.082031 C 84.007812 123.128906 84.136719 123.113281 84.238281 123.042969 C 85.417969 122.425781 85.882812 121.011719 86.378906 119.792969 C 86.898438 118.558594 87.484375 117.351562 88.132812 116.179688 C 88.425781 115.640625 88.75 115.046875 89.292969 114.746094 C 89.664062 114.59375 90.046875 114.460938 90.433594 114.347656 C 90.984375 114.097656 91.46875 113.71875 91.847656 113.242188 C 93.324219 111.476562 94.097656 109.226562 94.011719 106.925781 C 93.996094 106.4375 93.96875 104.101562 93.242188 104.824219 C 92.511719 105.542969 93.402344 107.777344 93.277344 108.722656 Z M 93.277344 108.722656 "/>
</g>
<mask id="mask17">
  <g filter="url(#alpha)">
<rect x="0" y="0" width="306" height="200" style="fill:rgb(0%,0%,0%);fill-opacity:0.101961;stroke:none;"/>
  </g>
</mask>
<clipPath id="clip18">
  <rect x="0" y="0" width="306" height="200"/>
</clipPath>
<g id="surface56" clip-path="url(#clip18)">
<path style=" stroke:none;fill-rule:nonzero;fill:rgb(0%,0%,0%);fill-opacity:1;" d="M 73.972656 86.953125 C 72.78125 84.804688 69.660156 83.742188 68.933594 81.632812 C 68.570312 82.125 68.367188 82.714844 68.347656 83.328125 C 68.289062 86.136719 72.179688 87.171875 73.539062 89.628906 C 73.984375 90.5 74.171875 91.480469 74.078125 92.453125 C 74.507812 90.566406 74.882812 88.597656 73.972656 86.953125 Z M 73.972656 86.953125 "/>
<path style=" stroke:none;fill-rule:nonzero;fill:rgb(0%,0%,0%);fill-opacity:1;" d="M 98.109375 65.535156 C 98.597656 64.109375 99.304688 62.675781 99.339844 61.199219 C 99.34375 61.039062 99.339844 60.878906 99.324219 60.71875 C 98.78125 62.347656 97.945312 63.933594 98.109375 65.535156 Z M 98.109375 65.535156 "/>
<path style=" stroke:none;fill-rule:nonzero;fill:rgb(0%,0%,0%);fill-opacity:1;" d="M 74.4375 73.113281 C 75.367188 70.167969 74.5625 66.515625 74.5625 63.246094 C 74.5625 62.851562 74.578125 62.453125 74.605469 62.058594 C 74.285156 63.320312 74.125 64.617188 74.125 65.921875 C 74.128906 68.253906 74.539062 70.785156 74.4375 73.113281 Z M 74.4375 73.113281 "/>
<path style=" stroke:none;fill-rule:nonzero;fill:rgb(0%,0%,0%);fill-opacity:1;" d="M 101.070312 85.820312 C 99.519531 87.445312 97.53125 88.605469 95.890625 90.15625 C 92.96875 92.914062 91.464844 96.6875 91.085938 100.691406 C 91.785156 97.710938 93.199219 94.964844 95.457031 92.832031 C 97.082031 91.289062 99.085938 90.136719 100.636719 88.496094 C 102.480469 86.488281 103.546875 83.886719 103.65625 81.164062 C 103.1875 82.902344 102.300781 84.503906 101.070312 85.820312 Z M 101.070312 85.820312 "/>
<path style=" stroke:none;fill-rule:nonzero;fill:rgb(0%,0%,0%);fill-opacity:1;" d="M 85.753906 113.144531 C 84.617188 113.144531 83.230469 112.953125 82.816406 111.890625 C 82.4375 110.914062 83.089844 109.59375 82.339844 108.867188 C 81.988281 108.527344 81.457031 108.480469 80.988281 108.402344 C 77.941406 107.914062 75.4375 105.472656 74.296875 102.605469 C 73.453125 100.488281 73.273438 98.175781 73.484375 95.894531 C 73.460938 95.984375 73.441406 96.074219 73.421875 96.164062 C 72.777344 99.183594 72.710938 102.417969 73.851562 105.289062 C 74.992188 108.15625 77.496094 110.59375 80.542969 111.085938 C 81.023438 111.164062 81.554688 111.210938 81.898438 111.546875 C 82.652344 112.273438 81.996094 113.597656 82.375 114.570312 C 82.785156 115.632812 84.175781 115.839844 85.308594 115.828125 C 87.734375 115.796875 90.148438 115.527344 92.519531 115.011719 C 92.183594 114.222656 91.890625 113.414062 91.644531 112.59375 C 89.699219 112.9375 87.726562 113.125 85.753906 113.144531 Z M 85.753906 113.144531 "/>
</g>
<mask id="mask18">
  <g filter="url(#alpha)">
<rect x="0" y="0" width="306" height="200" style="fill:rgb(0%,0%,0%);fill-opacity:0.101961;stroke:none;"/>
  </g>
</mask>
<clipPath id="clip19">
  <rect x="0" y="0" width="306" height="200"/>
</clipPath>
<g id="surface59" clip-path="url(#clip19)">
<path style=" stroke:none;fill-rule:nonzero;fill:rgb(0%,0%,0%);fill-opacity:1;" d="M 94.621094 101.328125 C 95.289062 101.832031 96.015625 99.910156 95.601562 99.429688 C 95.492188 99.554688 94.519531 101.257812 94.621094 101.328125 Z M 94.621094 101.328125 "/>
</g>
<mask id="mask19">
  <g filter="url(#alpha)">
<rect x="0" y="0" width="306" height="200" style="fill:rgb(0%,0%,0%);fill-opacity:0.101961;stroke:none;"/>
  </g>
</mask>
<clipPath id="clip20">
  <rect x="0" y="0" width="306" height="200"/>
</clipPath>
<g id="surface62" clip-path="url(#clip20)">
<path style=" stroke:none;fill-rule:nonzero;fill:rgb(0%,0%,0%);fill-opacity:1;" d="M 97.472656 136.109375 C 98.261719 135.835938 99.097656 135.566406 99.613281 134.914062 C 100.039062 134.394531 100.386719 132.316406 99.488281 133.3125 C 98.722656 134.164062 98.363281 135.289062 97.472656 136.109375 Z M 97.472656 136.109375 "/>
</g>
<mask id="mask20">
  <g filter="url(#alpha)">
<rect x="0" y="0" width="306" height="200" style="fill:rgb(0%,0%,0%);fill-opacity:0.101961;stroke:none;"/>
  </g>
</mask>
<clipPath id="clip21">
  <rect x="0" y="0" width="306" height="200"/>
</clipPath>
<g id="surface65" clip-path="url(#clip21)">
<path style=" stroke:none;fill-rule:nonzero;fill:rgb(0%,0%,0%);fill-opacity:1;" d="M 105.496094 133.933594 C 105.402344 134.570312 105.226562 135.234375 104.773438 135.695312 C 104.691406 135.78125 104.503906 135.835938 104.480469 135.722656 C 104.984375 135.453125 105.453125 135.121094 105.875 134.734375 C 106.792969 133.828125 106.914062 131.589844 105.519531 130.996094 C 105.507812 131.976562 105.644531 132.933594 105.496094 133.933594 Z M 105.496094 133.933594 "/>
</g>
<mask id="mask21">
  <g filter="url(#alpha)">
<rect x="0" y="0" width="306" height="200" style="fill:rgb(0%,0%,0%);fill-opacity:0.101961;stroke:none;"/>
  </g>
</mask>
<clipPath id="clip22">
  <rect x="0" y="0" width="306" height="200"/>
</clipPath>
<g id="surface68" clip-path="url(#clip22)">
<path style=" stroke:none;fill-rule:nonzero;fill:rgb(0%,0%,0%);fill-opacity:1;" d="M 189.910156 151.675781 L 191.898438 152.257812 L 192.003906 150.492188 L 190.039062 149.800781 Z M 189.910156 151.675781 "/>
</g>
<mask id="mask22">
  <g filter="url(#alpha)">
<rect x="0" y="0" width="306" height="200" style="fill:rgb(0%,0%,0%);fill-opacity:0.101961;stroke:none;"/>
  </g>
</mask>
<clipPath id="clip23">
  <rect x="0" y="0" width="306" height="200"/>
</clipPath>
<g id="surface71" clip-path="url(#clip23)">
<path style=" stroke:none;fill-rule:nonzero;fill:rgb(0%,0%,0%);fill-opacity:1;" d="M 168.789062 171.328125 C 168.734375 171.753906 168.625 172.171875 168.464844 172.570312 C 168.300781 173.089844 167.949219 173.53125 167.476562 173.804688 C 167.160156 173.9375 166.820312 174.003906 166.476562 174.003906 C 165.203125 174.078125 163.855469 174.058594 162.757812 173.410156 C 162.289062 173.109375 161.859375 172.75 161.480469 172.34375 C 159.015625 169.894531 156.777344 167.226562 154.789062 164.375 C 154.453125 163.898438 154.109375 163.332031 154.257812 162.75 C 155.101562 162.515625 155.929688 162.242188 156.738281 161.921875 L 156.78125 161.953125 C 157.613281 162.542969 158.214844 163.394531 158.804688 164.230469 L 160.699219 166.898438 C 161.035156 167.425781 161.4375 167.90625 161.886719 168.335938 C 162.449219 168.785156 163.066406 169.15625 163.726562 169.441406 C 164.617188 169.871094 165.507812 170.304688 166.433594 170.652344 C 167.03125 170.890625 168.046875 170.988281 168.789062 171.328125 Z M 168.789062 171.328125 "/>
</g>
<mask id="mask23">
  <g filter="url(#alpha)">
<rect x="0" y="0" width="306" height="200" style="fill:rgb(0%,0%,0%);fill-opacity:0.101961;stroke:none;"/>
  </g>
</mask>
<clipPath id="clip24">
  <rect x="0" y="0" width="306" height="200"/>
</clipPath>
<g id="surface74" clip-path="url(#clip24)">
<path style=" stroke:none;fill-rule:nonzero;fill:rgb(0%,0%,0%);fill-opacity:1;" d="M 176.554688 145.300781 C 182.039062 146.953125 187.730469 148.757812 187.730469 148.757812 C 187.730469 148.757812 192.921875 150.570312 195.121094 148.757812 C 195.398438 148.542969 195.707031 148.371094 196.039062 148.253906 C 195.753906 148.457031 195.445312 148.625 195.121094 148.757812 L 209.175781 144.226562 L 208.523438 142.402344 L 183.003906 141.527344 L 176.644531 145.09375 Z M 176.554688 145.300781 "/>
</g>
<mask id="mask24">
  <g filter="url(#alpha)">
<rect x="0" y="0" width="306" height="200" style="fill:rgb(0%,0%,0%);fill-opacity:0.101961;stroke:none;"/>
  </g>
</mask>
<clipPath id="clip25">
  <rect x="0" y="0" width="306" height="200"/>
</clipPath>
<g id="surface77" clip-path="url(#clip25)">
<path style=" stroke:none;fill-rule:nonzero;fill:rgb(0%,0%,0%);fill-opacity:1;" d="M 163.953125 174.582031 C 163.328125 175.773438 161.789062 176.109375 160.433594 176.128906 C 158.554688 176.152344 156.6875 175.820312 154.929688 175.144531 C 153.929688 174.761719 152.96875 174.265625 151.933594 173.984375 C 150.390625 173.5625 148.683594 173.597656 147.328125 172.746094 C 146.613281 172.269531 146.019531 171.625 145.597656 170.871094 C 145.519531 170.738281 145.445312 170.597656 145.375 170.457031 C 145.644531 170.480469 145.894531 170.507812 146.03125 170.519531 C 147.691406 170.679688 149.277344 171.289062 150.867188 171.746094 C 153.070312 172.382812 155.34375 172.738281 157.636719 172.800781 C 159.261719 172.847656 160.957031 172.730469 162.375 171.933594 C 162.796875 171.667969 163.238281 171.425781 163.691406 171.210938 C 163.835938 171.539062 163.957031 171.875 164.046875 172.21875 C 164.273438 173 164.328125 173.871094 163.953125 174.582031 Z M 163.953125 174.582031 "/>
</g>
<mask id="mask25">
  <g filter="url(#alpha)">
<rect x="0" y="0" width="306" height="200" style="fill:rgb(0%,0%,0%);fill-opacity:0.101961;stroke:none;"/>
  </g>
</mask>
<clipPath id="clip26">
  <rect x="0" y="0" width="306" height="200"/>
</clipPath>
<g id="surface80" clip-path="url(#clip26)">
<path style=" stroke:none;fill-rule:nonzero;fill:rgb(0%,0%,0%);fill-opacity:1;" d="M 167.183594 141.617188 C 166.800781 141.3125 166.46875 140.945312 166.203125 140.535156 C 165.933594 140.117188 165.828125 139.621094 165.902344 139.132812 C 165.6875 140.382812 166.082031 141.664062 166.957031 142.578125 C 167.636719 143.277344 168.910156 143.960938 169.90625 143.722656 C 169.765625 142.925781 167.816406 142.15625 167.183594 141.617188 Z M 167.183594 141.617188 "/>
</g>
<mask id="mask26">
  <g filter="url(#alpha)">
<rect x="0" y="0" width="306" height="200" style="fill:rgb(0%,0%,0%);fill-opacity:0.101961;stroke:none;"/>
  </g>
</mask>
<clipPath id="clip27">
  <rect x="0" y="0" width="306" height="200"/>
</clipPath>
<g id="surface83" clip-path="url(#clip27)">
<path style=" stroke:none;fill-rule:nonzero;fill:rgb(79.607843%,14.901961%,97.647059%);fill-opacity:1;" d="M 294.464844 181.589844 C 294.464844 179.25 282.652344 177.347656 268.082031 177.347656 C 253.507812 177.347656 241.695312 179.25 241.695312 181.589844 C 241.695312 183.933594 253.507812 185.832031 268.082031 185.832031 C 282.652344 185.832031 294.464844 183.933594 294.464844 181.589844 Z M 294.464844 181.589844 "/>
</g>
<mask id="mask27">
  <g filter="url(#alpha)">
<rect x="0" y="0" width="306" height="200" style="fill:rgb(0%,0%,0%);fill-opacity:0.101961;stroke:none;"/>
  </g>
</mask>
<clipPath id="clip28">
  <rect x="0" y="0" width="306" height="200"/>
</clipPath>
<g id="surface86" clip-path="url(#clip28)">
<path style=" stroke:none;fill-rule:nonzero;fill:rgb(0%,0%,0%);fill-opacity:1;" d="M 150.703125 82.5625 C 149.050781 83.324219 147.828125 84.789062 147.378906 86.554688 L 136.257812 86.554688 C 135.8125 84.789062 134.589844 83.324219 132.933594 82.5625 Z M 150.703125 82.5625 "/>
</g>
<mask id="mask28">
  <g filter="url(#alpha)">
<rect x="0" y="0" width="306" height="200" style="fill:rgb(0%,0%,0%);fill-opacity:0.101961;stroke:none;"/>
  </g>
</mask>
<clipPath id="clip29">
  <rect x="0" y="0" width="306" height="200"/>
</clipPath>
<g id="surface89" clip-path="url(#clip29)">
<path style=" stroke:none;fill-rule:nonzero;fill:rgb(0%,0%,0%);fill-opacity:1;" d="M 150.828125 93.570312 L 150.828125 94.1875 L 132.519531 94.1875 L 132.519531 93.6875 C 133.023438 93.496094 133.496094 93.242188 133.933594 92.933594 L 149.703125 92.933594 C 150.054688 93.183594 150.433594 93.398438 150.828125 93.570312 Z M 150.828125 93.570312 "/>
</g>
</defs>
<g id="surface1">
<use xlink:href="#surface5" mask="url(#mask0)"/>
<path style=" stroke:none;fill-rule:nonzero;fill:rgb(33.72549%,33.72549%,38.039216%);fill-opacity:1;" d="M 97.488281 97.355469 L 174.238281 97.355469 L 174.238281 115.140625 L 97.488281 115.140625 Z M 97.488281 97.355469 "/>
<use xlink:href="#surface8" mask="url(#mask1)"/>
<path style=" stroke:none;fill-rule:nonzero;fill:rgb(73.72549%,74.509804%,78.823529%);fill-opacity:1;" d="M 106.667969 115.726562 L 107.207031 163.207031 L 99.828125 181.859375 L 99.253906 115.726562 Z M 106.667969 115.726562 "/>
<path style=" stroke:none;fill-rule:nonzero;fill:rgb(33.72549%,33.72549%,38.039216%);fill-opacity:1;" d="M 98.296875 100.769531 L 173.023438 101.21875 L 173.023438 114.464844 L 98.296875 114.464844 Z M 98.296875 100.769531 "/>
<path style=" stroke:none;fill-rule:nonzero;fill:rgb(73.72549%,74.509804%,78.823529%);fill-opacity:1;" d="M 166.628906 115.726562 L 173.023438 116.628906 L 173.023438 181.136719 L 166.628906 161.40625 Z M 166.628906 115.726562 "/>
<path style=" stroke:none;fill-rule:nonzero;fill:rgb(93.72549%,93.72549%,94.117647%);fill-opacity:1;" d="M 175.453125 98.066406 L 211.464844 98.066406 L 211.464844 174.652344 L 175.453125 174.652344 Z M 175.453125 98.066406 "/>
<path style=" stroke:none;fill-rule:nonzero;fill:rgb(33.72549%,33.72549%,38.039216%);fill-opacity:1;" d="M 178.332031 100.195312 L 208.582031 100.195312 L 208.582031 159.066406 L 178.332031 159.066406 Z M 178.332031 100.195312 "/>
<use xlink:href="#surface11" mask="url(#mask2)"/>
<path style=" stroke:none;fill-rule:nonzero;fill:rgb(33.72549%,33.72549%,38.039216%);fill-opacity:1;" d="M 178.332031 101.402344 L 208.582031 101.402344 L 208.582031 114.464844 L 178.332031 114.464844 Z M 178.332031 101.402344 "/>
<path style=" stroke:none;fill-rule:nonzero;fill:rgb(33.72549%,33.72549%,38.039216%);fill-opacity:1;" d="M 178.332031 115.726562 L 208.582031 115.726562 L 208.582031 143.476562 L 178.332031 143.476562 Z M 178.332031 115.726562 "/>
<path style=" stroke:none;fill-rule:nonzero;fill:rgb(33.72549%,33.72549%,38.039216%);fill-opacity:1;" d="M 178.332031 145.191406 L 208.582031 145.191406 L 208.582031 172.941406 L 178.332031 172.941406 Z M 178.332031 145.191406 "/>
<use xlink:href="#surface14" mask="url(#mask3)"/>
<path style=" stroke:none;fill-rule:nonzero;fill:rgb(33.72549%,33.72549%,38.039216%);fill-opacity:1;" d="M 181.542969 177.144531 C 181.542969 175.769531 180.671875 174.652344 179.59375 174.652344 C 178.519531 174.652344 177.644531 175.769531 177.644531 177.144531 C 177.644531 178.523438 178.519531 179.640625 179.59375 179.640625 C 180.671875 179.640625 181.542969 178.523438 181.542969 177.144531 Z M 181.542969 177.144531 "/>
<path style=" stroke:none;fill-rule:nonzero;fill:rgb(33.72549%,33.72549%,38.039216%);fill-opacity:1;" d="M 208.582031 177.265625 C 208.582031 175.886719 207.710938 174.773438 206.632812 174.773438 C 205.558594 174.773438 204.683594 175.886719 204.683594 177.265625 C 204.683594 178.640625 205.558594 179.757812 206.632812 179.757812 C 207.710938 179.757812 208.582031 178.640625 208.582031 177.265625 Z M 208.582031 177.265625 "/>
<path style=" stroke:none;fill-rule:nonzero;fill:rgb(93.72549%,93.72549%,94.117647%);fill-opacity:1;" d="M 97.214844 181.859375 L 99.828125 181.859375 L 99.109375 98.730469 L 95.144531 98.730469 Z M 97.214844 181.859375 "/>
<path style=" stroke:none;fill-rule:nonzero;fill:rgb(93.72549%,93.72549%,94.117647%);fill-opacity:1;" d="M 173.023438 98.066406 L 173.023438 181.136719 L 175.453125 181.136719 L 175.453125 98.730469 Z M 173.023438 98.066406 "/>
<path style=" stroke:none;fill-rule:nonzero;fill:rgb(93.72549%,93.72549%,94.117647%);fill-opacity:1;" d="M 99.234375 113.652344 L 99.234375 116.628906 L 173.023438 116.628906 L 173.023438 114.464844 Z M 99.234375 113.652344 "/>
<path style=" stroke:none;fill-rule:nonzero;fill:rgb(100%,100%,100%);fill-opacity:1;" d="M 104.238281 92.480469 L 197.78125 92.480469 L 211.375 96.988281 L 211.375 99.597656 L 94.695312 98.699219 L 94.695312 96.039062 Z M 104.238281 92.480469 "/>
<path style=" stroke:none;fill-rule:nonzero;fill:rgb(73.72549%,74.509804%,78.823529%);fill-opacity:1;" d="M 94.695312 96.039062 L 211.375 96.988281 L 211.375 99.597656 L 94.695312 98.699219 Z M 94.695312 96.039062 "/>
<path style=" stroke:none;fill-rule:nonzero;fill:url(#linear0);" d="M 105.265625 127.023438 L 104.722656 126.941406 C 104.722656 126.914062 104.722656 126.894531 104.722656 126.871094 C 104.707031 126.746094 104.6875 126.621094 104.667969 126.492188 C 104.890625 126.667969 105.101562 126.84375 105.296875 127.023438 Z M 105.265625 127.023438 "/>
<path style=" stroke:none;fill-rule:nonzero;fill:rgb(63.529412%,39.607843%,39.607843%);fill-opacity:1;" d="M 93.496094 168.867188 C 93.847656 168.785156 94.203125 168.71875 94.5625 168.667969 C 97.015625 168.320312 99.519531 168.6875 101.769531 169.730469 C 101.542969 171.40625 101.320312 173.136719 101.800781 174.757812 C 102.136719 175.894531 102.8125 176.925781 102.953125 178.109375 C 103.691406 178.238281 104.292969 178.769531 104.511719 179.488281 C 104.613281 179.796875 104.667969 180.125 104.664062 180.453125 C 104.664062 180.859375 104.613281 181.261719 104.515625 181.65625 C 104.445312 182.308594 103.871094 182.789062 103.214844 182.738281 C 101.117188 182.976562 99.0625 182.152344 97.113281 181.339844 L 93.320312 179.765625 C 92.878906 179.578125 92.429688 179.394531 92.003906 179.164062 C 91.199219 178.730469 90.484375 178.144531 89.894531 177.4375 C 89.773438 177.3125 89.683594 177.15625 89.644531 176.984375 C 89.574219 176.507812 90.132812 176.222656 90.488281 175.898438 C 90.589844 175.800781 90.679688 175.691406 90.757812 175.570312 C 91.175781 174.933594 91.21875 174.058594 91.46875 173.3125 C 92.066406 171.535156 93.90625 170.394531 94.558594 168.660156 C 94.59375 168.566406 94.625 168.472656 94.652344 168.375 "/>
<use xlink:href="#surface17" mask="url(#mask4)"/>
<path style=" stroke:none;fill-rule:nonzero;fill:rgb(27.058824%,29.411765%,41.176471%);fill-opacity:1;" d="M 100.226562 141.941406 C 100.371094 142.445312 100.1875 142.984375 99.765625 143.296875 C 99.410156 143.515625 98.953125 143.484375 98.601562 143.722656 C 98.167969 144.03125 98.105469 144.636719 98.027344 145.164062 C 97.757812 146.96875 96.859375 148.609375 96.09375 150.269531 C 95.328125 151.933594 94.679688 153.746094 94.964844 155.550781 C 95.15625 156.773438 95.757812 158.082031 95.191406 159.183594 C 95.054688 159.457031 94.847656 159.695312 94.691406 159.960938 C 93.921875 161.25 94.359375 162.882812 94.328125 164.386719 C 94.339844 164.550781 94.304688 164.71875 94.222656 164.863281 C 94.105469 165.003906 93.960938 165.117188 93.796875 165.195312 C 93.238281 165.605469 92.898438 166.246094 92.871094 166.9375 C 92.847656 167.621094 92.933594 168.300781 93.117188 168.960938 C 93.144531 169.226562 93.261719 169.472656 93.449219 169.664062 C 93.664062 169.804688 93.917969 169.878906 94.175781 169.871094 C 95.878906 170.007812 97.546875 170.414062 99.121094 171.074219 C 100.148438 171.5 101.144531 172.039062 102.238281 172.242188 C 102.449219 172.308594 102.679688 172.285156 102.875 172.175781 C 103.011719 172.050781 103.109375 171.886719 103.144531 171.707031 C 103.566406 170.324219 103.992188 168.898438 103.847656 167.464844 C 103.785156 166.84375 103.621094 166.242188 103.578125 165.625 C 103.386719 163.183594 105.035156 160.984375 105.558594 158.578125 C 105.792969 157.492188 105.792969 156.371094 105.960938 155.277344 C 106.417969 152.277344 108.070312 149.585938 108.707031 146.617188 C 108.792969 146.066406 108.933594 145.519531 109.117188 144.992188 C 109.589844 143.84375 110.6875 142.910156 110.710938 141.667969 C 110.726562 141.394531 110.65625 141.121094 110.507812 140.890625 C 110.25 140.609375 109.914062 140.421875 109.539062 140.347656 C 108.070312 139.945312 106.570312 139.640625 105.058594 139.445312 C 104.363281 139.308594 103.65625 139.257812 102.953125 139.296875 C 102.035156 139.40625 101.15625 139.71875 100.375 140.207031 C 99.328125 140.855469 100 141.007812 100.226562 141.941406 Z M 100.226562 141.941406 "/>
<use xlink:href="#surface20" mask="url(#mask5)"/>
<path style=" stroke:none;fill-rule:nonzero;fill:rgb(33.72549%,33.72549%,38.039216%);fill-opacity:1;" d="M 94.925781 182.78125 L 92.617188 182.78125 L 91.105469 151.714844 L 91 149.949219 L 92.964844 149.257812 L 93.097656 151.136719 Z M 94.925781 182.78125 "/>
<use xlink:href="#surface23" mask="url(#mask6)"/>
<path style=" stroke:none;fill-rule:nonzero;fill:rgb(33.72549%,33.72549%,38.039216%);fill-opacity:1;" d="M 123.910156 189.355469 L 120.101562 189.816406 L 102.546875 149.949219 L 97.8125 149.601562 L 89.5 152.03125 L 87.882812 199.496094 L 84.074219 199.496094 L 85.574219 150.296875 L 76.453125 150.527344 L 60.171875 191.085938 L 56.707031 191.085938 L 73.828125 143.6875 L 74.492188 141.859375 L 100.007812 140.984375 L 106.367188 144.554688 L 106.449219 144.757812 Z M 123.910156 189.355469 "/>
<use xlink:href="#surface26" mask="url(#mask7)"/>
<path style=" stroke:none;fill-rule:nonzero;fill:rgb(100%,100%,100%);fill-opacity:1;" d="M 80.496094 136.890625 L 90.882812 134.578125 C 90.882812 134.578125 115.710938 139.203125 117.558594 141.050781 C 117.558594 141.050781 97.699219 145.09375 95.503906 146.472656 C 93.3125 147.847656 80.261719 149.371094 80.496094 136.890625 Z M 80.496094 136.890625 "/>
<path style=" stroke:none;fill-rule:nonzero;fill:rgb(79.607843%,14.901961%,97.647059%);fill-opacity:1;" d="M 76.027344 110.90625 C 75.214844 113.480469 72.996094 115.804688 70.296875 115.914062 C 70.097656 115.9375 69.902344 115.902344 69.726562 115.8125 C 69.386719 115.601562 69.378906 115.105469 69.515625 114.730469 C 69.652344 114.351562 69.894531 114.011719 69.933594 113.617188 C 69.941406 113.539062 69.9375 113.457031 69.917969 113.375 C 69.847656 113.054688 69.582031 112.765625 69.273438 112.835938 C 69.710938 112.484375 69.808594 111.863281 69.503906 111.394531 C 69.382812 111.257812 69.273438 111.109375 69.175781 110.953125 C 68.949219 110.492188 69.300781 109.972656 69.445312 109.480469 C 69.746094 108.394531 68.984375 107.3125 68.921875 106.179688 C 68.867188 105.171875 69.378906 104.21875 69.503906 103.21875 C 69.707031 101.589844 68.902344 100.03125 68.808594 98.410156 C 68.742188 97.277344 69.019531 96.15625 69.332031 95.0625 C 69.601562 94.085938 69.910156 93.101562 69.929688 92.082031 C 69.929688 91.339844 69.800781 90.609375 69.765625 89.871094 C 69.710938 89.199219 69.832031 88.523438 70.121094 87.910156 C 70.308594 87.550781 70.625 87.277344 71.011719 87.148438 C 71.898438 86.851562 72.480469 87.3125 72.613281 88.15625 C 72.828125 89.589844 72.703125 91.054688 72.988281 92.492188 C 73.25 93.839844 73.648438 95.15625 74.175781 96.421875 C 74.65625 97.5625 75.238281 98.667969 75.605469 99.855469 C 75.882812 100.828125 76.082031 101.828125 76.199219 102.835938 C 76.5625 105.542969 76.847656 108.328125 76.027344 110.90625 Z M 76.027344 110.90625 "/>
<path style=" stroke:none;fill-rule:nonzero;fill:rgb(63.529412%,39.607843%,39.607843%);fill-opacity:1;" d="M 137.703125 176.5 C 137.011719 177.476562 135.933594 178.109375 134.742188 178.242188 C 133.566406 178.390625 132.347656 178.09375 131.207031 178.417969 C 130.847656 178.476562 130.542969 178.710938 130.394531 179.042969 C 130.367188 179.265625 130.347656 179.484375 130.34375 179.707031 C 130.210938 180.429688 129.257812 180.59375 128.519531 180.589844 L 125.472656 180.570312 C 124.835938 180.570312 124.136719 180.535156 123.679688 180.09375 C 123.234375 179.597656 123.222656 178.847656 123.652344 178.339844 C 123.75 178.226562 123.863281 178.132812 123.996094 178.066406 C 123.605469 177.9375 123.324219 177.601562 123.265625 177.199219 C 123.207031 176.800781 123.226562 176.394531 123.320312 176.003906 C 123.320312 174.871094 123.589844 172.972656 124.386719 172.085938 C 125.363281 170.984375 127.058594 169.558594 128.535156 169.261719 C 129.546875 169.070312 130.589844 169.367188 131.347656 170.0625 C 132.046875 170.710938 132.554688 171.730469 133.511719 171.84375 C 134.035156 171.910156 134.539062 171.664062 135.058594 171.574219 C 136.261719 171.417969 137.433594 172.039062 137.984375 173.121094 C 138.117188 173.390625 138.207031 173.675781 138.253906 173.96875 C 138.398438 174.851562 138.199219 175.757812 137.703125 176.5 Z M 137.703125 176.5 "/>
<use xlink:href="#surface29" mask="url(#mask8)"/>
<path style=" stroke:none;fill-rule:nonzero;fill:rgb(27.058824%,29.411765%,41.176471%);fill-opacity:1;" d="M 129.65625 172.214844 C 128.574219 173.054688 127.304688 173.710938 125.9375 173.78125 C 124.574219 173.851562 123.125 173.238281 122.457031 172.050781 C 121.480469 170.308594 122.347656 167.886719 121.148438 166.289062 C 120.773438 165.785156 120.238281 165.429688 119.839844 164.945312 C 119.445312 164.460938 119.21875 163.730469 119.570312 163.21875 C 119.144531 163.378906 118.695312 162.96875 118.570312 162.527344 C 118.445312 162.089844 118.523438 161.617188 118.449219 161.171875 C 118.25 159.996094 117.09375 159.238281 116.539062 158.191406 C 115.984375 157.144531 116.0625 155.789062 116 154.550781 C 115.859375 151.53125 114.738281 148.644531 112.804688 146.324219 C 112.433594 145.886719 111.964844 145.4375 111.390625 145.460938 C 111.488281 144.46875 110.828125 143.519531 109.972656 143.023438 C 109.117188 142.523438 108.097656 142.355469 107.109375 142.257812 C 97.109375 141.269531 86.6875 144.992188 77.140625 141.863281 C 74.484375 140.992188 71.921875 139.535156 70.296875 137.253906 C 69.015625 135.5 68.5 133.304688 68.863281 131.164062 L 68.863281 131.125 C 69.238281 129.199219 70.253906 128.726562 71.9375 127.847656 C 73.878906 126.820312 75.90625 125.96875 78 125.304688 C 82.0625 124.03125 86.433594 123.574219 90.628906 124.507812 C 92.585938 124.945312 94.472656 125.671875 96.433594 126.097656 C 97.207031 126.265625 97.980469 126.386719 98.765625 126.484375 C 99.980469 126.636719 101.203125 126.738281 102.425781 126.878906 C 106.339844 127.328125 110.195312 128.195312 113.925781 129.464844 C 115.3125 129.9375 116.703125 130.476562 117.898438 131.332031 C 119.804688 132.71875 121.078125 134.8125 121.429688 137.144531 C 121.542969 137.941406 121.542969 138.773438 121.71875 139.542969 C 121.882812 140.195312 122.097656 140.828125 122.367188 141.441406 C 124.679688 147.167969 126.570312 153.054688 128.023438 159.058594 C 128.105469 159.503906 128.257812 159.933594 128.476562 160.332031 C 128.824219 160.890625 129.417969 161.269531 129.769531 161.828125 C 130.582031 163.152344 129.796875 164.996094 130.519531 166.375 C 130.769531 166.851562 131.183594 167.226562 131.429688 167.703125 C 132.242188 169.269531 131.042969 171.136719 129.65625 172.214844 Z M 129.65625 172.214844 "/>
<use xlink:href="#surface32" mask="url(#mask9)"/>
<use xlink:href="#surface35" mask="url(#mask10)"/>
<path style=" stroke:none;fill-rule:nonzero;fill:rgb(63.529412%,39.607843%,39.607843%);fill-opacity:1;" d="M 98.898438 127.179688 C 98.734375 127.773438 98.28125 128.242188 97.699219 128.425781 C 97.121094 128.601562 96.515625 128.671875 95.914062 128.632812 L 95.371094 128.632812 C 88.265625 128.472656 81.085938 126.898438 74.144531 128.402344 C 73.308594 128.574219 72.488281 128.816406 71.691406 129.121094 C 70.628906 129.546875 69.636719 130.132812 68.753906 130.855469 C 68.542969 130.285156 68.339844 129.714844 68.132812 129.140625 C 67.882812 128.457031 68.675781 128.304688 68.824219 127.695312 C 68.925781 127.277344 68.753906 126.808594 68.667969 126.367188 C 68.644531 126.257812 68.632812 126.148438 68.625 126.039062 C 68.578125 125.058594 68.925781 124.496094 69.726562 123.96875 C 72.105469 122.394531 75.003906 121.316406 77.71875 120.507812 C 79.160156 120.050781 80.652344 119.761719 82.160156 119.644531 C 84.292969 119.519531 86.425781 119.914062 88.5 120.417969 C 91.054688 121.046875 93.582031 121.882812 95.84375 123.21875 C 96.957031 123.867188 98.039062 124.679688 98.636719 125.835938 C 98.875 126.242188 98.96875 126.714844 98.898438 127.179688 Z M 98.898438 127.179688 "/>
<use xlink:href="#surface38" mask="url(#mask11)"/>
<use xlink:href="#surface41" mask="url(#mask12)"/>
<path style=" stroke:none;fill-rule:nonzero;fill:rgb(79.607843%,14.901961%,97.647059%);fill-opacity:1;" d="M 104.972656 97.496094 L 104.9375 97.59375 C 104.328125 99.167969 103.214844 100.5 102.5 102.03125 C 101.597656 103.976562 101.375 106.15625 101.175781 108.289062 C 101 110.121094 100.832031 111.960938 100.96875 113.792969 C 101.316406 118.3125 103.523438 122.601562 104.113281 127.035156 C 104.257812 128.058594 104.296875 129.09375 104.222656 130.128906 C 104.175781 130.78125 104.054688 131.480469 103.621094 131.964844 C 103.191406 132.445312 102.347656 132.636719 101.882812 132.171875 C 102.089844 131.773438 102.300781 131.378906 102.511719 130.980469 C 101.273438 130.019531 99.410156 130.710938 97.964844 130.109375 C 97.328125 129.835938 96.820312 129.347656 96.285156 128.914062 C 93.828125 126.910156 90.664062 125.988281 87.515625 126.347656 C 86.632812 126.457031 85.75 126.664062 84.867188 126.582031 C 83.082031 126.417969 81.636719 125.136719 80.046875 124.3125 C 76.347656 122.488281 71.910156 123.089844 68.828125 125.835938 C 68.449219 126.1875 67.941406 126.597656 67.472656 126.375 C 67.292969 126.265625 67.148438 126.109375 67.054688 125.917969 C 65.28125 122.886719 66.585938 118.976562 68.480469 116.023438 C 70.378906 113.066406 72.886719 110.34375 73.667969 106.921875 C 73.78125 106.507812 73.8125 106.082031 73.769531 105.65625 C 73.695312 105.167969 73.449219 104.726562 73.3125 104.253906 C 73.074219 103.421875 73.183594 102.535156 73.253906 101.671875 C 73.539062 97.863281 72.902344 94.046875 71.40625 90.535156 C 70.972656 89.523438 70.457031 88.5 70.457031 87.402344 C 70.457031 85.671875 71.695312 84.238281 72.71875 82.847656 C 73.898438 81.25 74.886719 79.480469 76.378906 78.164062 C 77.792969 76.914062 79.839844 76.152344 81.589844 76.785156 C 84.5625 76.0625 87.621094 75.765625 90.675781 75.898438 C 91.730469 75.949219 92.824219 76.058594 93.75 76.570312 C 94.742188 77.113281 95.453125 78.078125 96.429688 78.65625 C 97.140625 79.082031 97.960938 79.28125 98.734375 79.578125 C 100.875 80.414062 102.640625 81.996094 103.707031 84.03125 C 104.789062 86.128906 105.0625 88.542969 105.300781 90.898438 C 105.527344 93.109375 105.742188 95.410156 104.972656 97.496094 Z M 104.972656 97.496094 "/>
<use xlink:href="#surface44" mask="url(#mask13)"/>
<path style=" stroke:none;fill-rule:nonzero;fill:rgb(79.607843%,14.901961%,97.647059%);fill-opacity:1;" d="M 103.949219 92.660156 C 104.351562 93.804688 104.894531 94.910156 105.113281 96.101562 C 105.480469 98.101562 104.914062 100.222656 105.53125 102.15625 C 105.6875 102.570312 105.824219 102.992188 105.929688 103.421875 C 106.035156 104.039062 105.914062 104.667969 105.914062 105.292969 C 105.914062 106.300781 106.230469 107.277344 106.511719 108.242188 C 107.464844 111.53125 108.09375 114.90625 108.394531 118.3125 C 108.4375 119.230469 108.582031 120.140625 108.824219 121.023438 C 108.9375 121.324219 109.035156 121.628906 109.117188 121.941406 C 109.191406 122.355469 109.207031 122.777344 109.167969 123.195312 C 109.097656 124.523438 108.945312 125.855469 109.097656 127.179688 C 109.246094 128.5 109.726562 129.84375 110.71875 130.730469 C 109.832031 130.921875 108.894531 131.113281 108.027344 130.828125 C 106.808594 130.429688 106.078125 129.203125 105.457031 128.085938 C 104.671875 126.660156 101.6875 125.375 101.378906 123.773438 C 101.136719 122.519531 100.355469 120.871094 100.226562 119.597656 C 100.097656 118.324219 100.984375 116.777344 100.050781 115.90625 C 99.597656 115.480469 100.808594 115.597656 100.363281 115.164062 C 99.367188 114.191406 99.121094 112.691406 99.058594 111.296875 C 98.953125 108.839844 99.261719 106.351562 98.8125 103.933594 C 98.539062 102.4375 97.972656 101.015625 97.523438 99.5625 C 96.996094 97.878906 96.617188 96.148438 96.238281 94.414062 C 95.863281 92.875 95.59375 91.3125 95.425781 89.738281 C 95.308594 88.382812 95.359375 86.941406 95.96875 85.707031 C 96.574219 84.472656 97.796875 83.472656 99.164062 83.488281 C 103.726562 83.570312 102.941406 89.789062 103.949219 92.660156 Z M 103.949219 92.660156 "/>
<use xlink:href="#surface47" mask="url(#mask14)"/>
<use xlink:href="#surface50" mask="url(#mask15)"/>
<use xlink:href="#surface53" mask="url(#mask16)"/>
<path style=" stroke:none;fill-rule:nonzero;fill:rgb(63.529412%,39.607843%,39.607843%);fill-opacity:1;" d="M 95.058594 55.503906 C 97.390625 56.519531 99.394531 58.757812 99.320312 61.289062 C 99.257812 63.953125 97.03125 66.457031 97.796875 69.007812 C 98.242188 70.488281 99.578125 71.480469 100.640625 72.605469 C 104.671875 76.875 104.664062 84.332031 100.617188 88.59375 C 99.066406 90.21875 97.078125 91.375 95.441406 92.929688 C 89.664062 98.375 89.417969 107.800781 92.507812 115.113281 C 90.140625 115.625 87.726562 115.898438 85.300781 115.925781 C 84.167969 115.925781 82.777344 115.734375 82.367188 114.675781 C 81.988281 113.695312 82.636719 112.375 81.890625 111.652344 C 81.535156 111.3125 81.007812 111.265625 80.535156 111.1875 C 77.484375 110.695312 74.984375 108.257812 73.839844 105.386719 C 72.699219 102.519531 72.757812 99.289062 73.414062 96.269531 C 73.878906 94.085938 74.605469 91.6875 73.527344 89.734375 C 72.171875 87.277344 68.277344 86.242188 68.339844 83.4375 C 68.386719 81.136719 71.097656 80.015625 72.636719 78.304688 C 75.472656 75.15625 74.121094 70.269531 74.117188 66.027344 C 74.117188 62.292969 75.421875 58.4375 78.199219 55.953125 C 82.332031 52.21875 90.292969 53.429688 95.058594 55.503906 Z M 95.058594 55.503906 "/>
<use xlink:href="#surface56" mask="url(#mask17)"/>
<use xlink:href="#surface59" mask="url(#mask18)"/>
<use xlink:href="#surface62" mask="url(#mask19)"/>
<use xlink:href="#surface65" mask="url(#mask20)"/>
<path style=" stroke:none;fill-rule:nonzero;fill:rgb(27.058824%,29.411765%,41.176471%);fill-opacity:1;" d="M 115.128906 129.902344 C 115.128906 129.902344 107.445312 126.878906 104.664062 127.191406 C 101.886719 127.503906 107.8125 131.886719 107.8125 131.886719 L 111.355469 134.277344 C 111.355469 134.277344 113.519531 133.464844 113.664062 133.402344 C 113.808594 133.339844 115.128906 129.902344 115.128906 129.902344 Z M 115.128906 129.902344 "/>
<path style=" stroke:none;fill-rule:nonzero;fill:rgb(33.72549%,33.72549%,38.039216%);fill-opacity:1;" d="M 62.25 97.484375 C 62.25 97.484375 68.023438 94.136719 75.644531 98.296875 C 83.265625 102.460938 84.535156 126.957031 84.535156 126.957031 C 84.535156 126.957031 81.417969 151.914062 93.4375 146.359375 C 93.4375 146.359375 115.371094 139.542969 117.566406 141.046875 C 117.566406 141.046875 119.644531 141.046875 115.488281 141.96875 C 111.332031 142.894531 95.273438 147.988281 95.273438 147.988281 C 95.273438 147.988281 90.082031 149.800781 87.882812 147.988281 C 85.683594 146.171875 79.453125 148.21875 78.644531 135.738281 C 78.109375 127.871094 77.144531 120.039062 75.757812 112.277344 L 73.617188 105.925781 Z M 62.25 97.484375 "/>
<path style=" stroke:none;fill-rule:nonzero;fill:rgb(100%,100%,100%);fill-opacity:1;" d="M 61.558594 136.082031 C 61.558594 136.082031 64.097656 110.773438 59.933594 101.644531 C 56.308594 93.6875 70.320312 97.410156 73.976562 98.492188 C 74.542969 98.664062 75.035156 99.015625 75.378906 99.496094 C 77.546875 102.542969 85.316406 114.765625 83.027344 131.113281 C 83.027344 131.113281 82.101562 145.675781 87.875 147.984375 L 70.085938 142.25 C 68.644531 141.78125 67.179688 141.394531 65.699219 141.058594 C 63.816406 140.632812 60.746094 139.414062 61.558594 136.082031 Z M 61.558594 136.082031 "/>
<path style=" stroke:none;fill-rule:nonzero;fill:rgb(33.72549%,33.72549%,38.039216%);fill-opacity:1;" d="M 188.078125 183.324219 L 190.386719 183.324219 L 191.898438 152.257812 L 192.003906 150.492188 L 190.039062 149.800781 L 189.910156 151.675781 Z M 188.078125 183.324219 "/>
<use xlink:href="#surface68" mask="url(#mask21)"/>
<path style=" stroke:none;fill-rule:nonzero;fill:rgb(63.529412%,39.607843%,39.607843%);fill-opacity:1;" d="M 168.789062 171.328125 C 168.734375 171.753906 168.625 172.171875 168.464844 172.570312 C 168.300781 173.089844 167.949219 173.53125 167.476562 173.804688 C 167.160156 173.9375 166.820312 174.003906 166.476562 174.003906 C 165.203125 174.078125 163.855469 174.058594 162.757812 173.410156 C 162.289062 173.109375 161.859375 172.75 161.480469 172.34375 C 159.015625 169.894531 156.777344 167.226562 154.789062 164.375 C 154.453125 163.898438 154.109375 163.332031 154.257812 162.75 C 156.835938 162.035156 159.28125 160.914062 161.507812 159.429688 C 161.816406 159.195312 162.160156 159.011719 162.527344 158.890625 C 163.15625 158.753906 163.800781 158.730469 164.4375 158.820312 C 165.054688 158.917969 165.082031 158.9375 165.316406 159.632812 C 165.707031 160.804688 165.640625 162.070312 166.078125 163.242188 C 166.359375 163.890625 166.695312 164.511719 167.09375 165.097656 C 168.222656 166.992188 169.09375 169.226562 168.789062 171.328125 Z M 168.789062 171.328125 "/>
<use xlink:href="#surface71" mask="url(#mask22)"/>
<path style=" stroke:none;fill-rule:nonzero;fill:rgb(27.058824%,29.411765%,41.176471%);fill-opacity:1;" d="M 170.539062 142.386719 C 170.351562 142.835938 170.125 143.269531 169.863281 143.679688 C 167.34375 147.910156 165.402344 152.457031 164.089844 157.199219 C 163.714844 157.117188 163.503906 157.625 163.507812 158.011719 C 163.507812 158.402344 163.507812 158.890625 163.148438 159.03125 C 163.042969 159.070312 162.925781 159.070312 162.820312 159.117188 C 162.59375 159.21875 162.53125 159.507812 162.496094 159.757812 L 162.175781 162.105469 C 162.066406 162.917969 161.96875 163.800781 162.367188 164.519531 C 162.640625 164.945312 162.996094 165.3125 163.414062 165.601562 L 168.699219 169.773438 C 168.917969 169.945312 169.183594 170.128906 169.445312 170.03125 C 170.039062 169.816406 169.511719 168.753906 169.988281 168.324219 C 170.300781 168.027344 170.800781 168.25 171.234375 168.214844 C 171.804688 168.171875 172.234375 167.648438 172.378906 167.097656 C 172.480469 166.539062 172.488281 165.964844 172.40625 165.402344 C 172.371094 165.144531 172.402344 164.882812 172.496094 164.640625 C 172.65625 164.382812 172.878906 164.167969 173.140625 164.019531 C 175.003906 162.65625 176.070312 160.460938 175.988281 158.15625 C 175.945312 157.808594 175.957031 157.457031 176.027344 157.117188 C 176.136719 156.804688 176.300781 156.511719 176.515625 156.261719 C 178.4375 153.660156 180.035156 150.839844 181.625 148.023438 C 182.542969 146.398438 183.472656 144.746094 183.792969 142.914062 C 183.847656 142.777344 183.835938 142.621094 183.757812 142.492188 C 183.683594 142.367188 183.550781 142.28125 183.402344 142.265625 C 182.609375 142.019531 181.800781 141.824219 180.980469 141.6875 C 178.492188 141.179688 176.089844 140.402344 173.667969 139.65625 C 171.25 138.90625 171.269531 140.429688 170.539062 142.386719 Z M 170.539062 142.386719 "/>
<path style=" stroke:none;fill-rule:nonzero;fill:rgb(33.72549%,33.72549%,38.039216%);fill-opacity:1;" d="M 159.09375 189.898438 L 162.90625 190.359375 L 180.457031 150.492188 L 185.191406 150.144531 L 193.503906 152.570312 L 195.121094 200.039062 L 198.929688 200.039062 L 197.429688 150.835938 L 206.550781 151.070312 L 222.832031 191.628906 L 226.296875 191.628906 L 209.175781 144.226562 L 208.515625 142.402344 L 182.996094 141.527344 L 176.636719 145.09375 L 176.554688 145.300781 Z M 159.09375 189.898438 "/>
<use xlink:href="#surface74" mask="url(#mask23)"/>
<path style=" stroke:none;fill-rule:nonzero;fill:rgb(100%,100%,100%);fill-opacity:1;" d="M 202.507812 137.433594 L 192.121094 135.121094 C 192.121094 135.121094 167.292969 139.746094 165.445312 141.59375 C 165.445312 141.59375 185.304688 145.636719 187.5 147.011719 C 189.691406 148.390625 202.742188 149.914062 202.507812 137.433594 Z M 202.507812 137.433594 "/>
<path style=" stroke:none;fill-rule:nonzero;fill:rgb(63.529412%,39.607843%,39.607843%);fill-opacity:1;" d="M 163.953125 174.582031 C 163.328125 175.773438 161.789062 176.109375 160.433594 176.128906 C 158.554688 176.152344 156.6875 175.820312 154.929688 175.144531 C 153.929688 174.761719 152.96875 174.265625 151.933594 173.984375 C 150.390625 173.5625 148.683594 173.597656 147.328125 172.746094 C 146.613281 172.269531 146.019531 171.625 145.597656 170.871094 C 145.519531 170.738281 145.445312 170.597656 145.375 170.457031 C 144.726562 169.199219 144.425781 167.730469 144.785156 166.371094 C 145.148438 165.011719 146.453125 163.511719 147.972656 163.535156 C 149.773438 163.5625 151.917969 164.414062 153.65625 164.855469 C 155.824219 165.398438 157.992188 166.023438 159.90625 167.171875 C 161.507812 168.136719 162.925781 169.519531 163.679688 171.210938 C 163.824219 171.539062 163.945312 171.875 164.039062 172.21875 C 164.273438 173 164.328125 173.871094 163.953125 174.582031 Z M 163.953125 174.582031 "/>
<use xlink:href="#surface77" mask="url(#mask24)"/>
<path style=" stroke:none;fill-rule:nonzero;fill:rgb(27.058824%,29.411765%,41.176471%);fill-opacity:1;" d="M 175.589844 123.054688 C 172.070312 122.476562 168.484375 122.335938 164.914062 122.195312 L 160.550781 122.023438 C 160.238281 121.984375 159.925781 122.023438 159.632812 122.132812 C 159.378906 122.296875 159.140625 122.476562 158.914062 122.675781 C 158.476562 122.972656 157.914062 123.003906 157.386719 123.035156 C 153.640625 123.242188 149.914062 123.726562 146.242188 124.480469 C 144.34375 124.871094 142.375 125.375 140.953125 126.6875 C 139.445312 128.070312 138.785156 130.179688 138.734375 132.226562 C 138.683594 134.269531 139.21875 136.277344 139.785156 138.238281 C 140.503906 140.601562 140.902344 143.050781 140.96875 145.519531 C 140.941406 146.203125 140.96875 146.886719 141.046875 147.570312 C 141.171875 148.21875 141.363281 148.855469 141.617188 149.464844 L 143.613281 154.792969 C 143.789062 155.257812 143.960938 155.722656 144.152344 156.175781 C 144.34375 156.632812 144.53125 156.988281 144.695312 157.417969 C 144.9375 158.003906 145.128906 158.609375 145.324219 159.214844 L 146.648438 163.386719 L 146.824219 163.925781 C 147.300781 165.429688 147.792969 166.957031 148.695312 168.246094 C 149.601562 169.535156 151 170.578125 152.574219 170.65625 C 153.082031 170.636719 153.589844 170.648438 154.097656 170.695312 C 154.527344 170.800781 154.945312 170.953125 155.34375 171.148438 C 156.527344 171.640625 157.792969 171.886719 159.074219 171.878906 C 160.25 171.878906 161.558594 171.550781 162.199219 170.558594 C 162.550781 170.015625 162.644531 169.347656 162.742188 168.710938 C 162.910156 167.425781 163.078125 166.085938 162.640625 164.863281 C 162.371094 164.136719 161.914062 163.507812 161.601562 162.792969 C 161.160156 161.8125 161.019531 160.730469 160.734375 159.699219 C 160.117188 157.476562 158.867188 155.484375 157.132812 153.964844 C 156.515625 151.523438 156.0625 149.046875 155.777344 146.542969 C 155.738281 145.992188 155.628906 145.445312 155.449219 144.917969 C 155.132812 144.105469 154.492188 143.445312 154.222656 142.617188 C 153.972656 141.847656 154.046875 140.960938 153.589844 140.296875 C 157.402344 141.34375 161.171875 141.109375 165.128906 141.046875 C 166.394531 141.050781 167.660156 140.976562 168.921875 140.828125 C 169.507812 140.722656 170.101562 140.660156 170.695312 140.640625 C 171.921875 140.640625 173.070312 141.179688 174.191406 141.660156 C 177.367188 143.011719 180.714844 144.078125 184.164062 144.226562 C 187.726562 144.375 191.246094 143.535156 194.726562 142.707031 C 196.257812 142.339844 197.847656 141.945312 199.058594 140.941406 C 200.273438 139.933594 200.957031 138.121094 200.207031 136.742188 C 199.640625 135.703125 198.460938 135.195312 197.363281 134.761719 C 194.316406 133.558594 191.257812 132.386719 188.324219 130.929688 C 183.847656 128.746094 180.496094 123.867188 175.589844 123.054688 Z M 175.589844 123.054688 "/>
<path style=" stroke:none;fill-rule:nonzero;fill:rgb(63.137255%,38.039216%,41.568627%);fill-opacity:1;" d="M 169.3125 110.792969 C 168.886719 111.714844 168.171875 112.46875 167.644531 113.335938 C 166.761719 114.761719 166.46875 116.480469 166.832031 118.121094 C 167.21875 119.761719 168.34375 121.132812 169.878906 121.828125 C 170.554688 122.097656 171.265625 122.269531 171.992188 122.339844 C 172.945312 122.457031 173.960938 122.480469 174.800781 122.019531 C 175.433594 121.640625 175.949219 121.097656 176.300781 120.453125 C 177.027344 119.234375 177.441406 117.859375 177.820312 116.492188 C 178.523438 113.964844 179.121094 111.375 179.035156 108.753906 C 179.003906 107.851562 178.824219 106.835938 178.078125 106.3125 C 177.691406 106.089844 177.265625 105.949219 176.820312 105.902344 L 173.25 105.261719 C 172.558594 105.136719 171.355469 104.632812 170.757812 105.128906 C 170.15625 105.628906 170.113281 107.101562 170.007812 107.792969 C 169.847656 108.816406 169.746094 109.855469 169.3125 110.792969 Z M 169.3125 110.792969 "/>
<path style=" stroke:none;fill-rule:nonzero;fill:rgb(63.137255%,38.039216%,41.568627%);fill-opacity:1;" d="M 212.730469 100.3125 L 211.796875 108.148438 C 211.601562 109.546875 211.492188 110.953125 211.460938 112.367188 C 211.460938 113.152344 211.488281 114.023438 210.964844 114.613281 C 210.710938 114.878906 210.390625 115.074219 210.035156 115.171875 C 208.902344 115.527344 207.664062 115.210938 206.578125 114.726562 C 205.945312 114.457031 205.300781 114.0625 205.011719 113.429688 C 204.84375 112.992188 204.777344 112.523438 204.808594 112.058594 C 204.808594 107.382812 205.25 102.507812 207.691406 98.523438 C 207.898438 98.132812 208.191406 97.792969 208.546875 97.53125 C 209.226562 97.097656 210.109375 97.21875 210.878906 97.457031 C 211.347656 97.597656 212.621094 97.757812 212.921875 98.179688 C 213.222656 98.597656 212.792969 99.773438 212.730469 100.3125 Z M 212.730469 100.3125 "/>
<path style=" stroke:none;fill-rule:nonzero;fill:rgb(63.137255%,38.039216%,41.568627%);fill-opacity:1;" d="M 197.691406 62.214844 C 197.691406 67.601562 193.328125 71.96875 187.945312 71.96875 C 182.558594 71.96875 178.195312 67.601562 178.195312 62.214844 C 178.195312 56.824219 182.558594 52.457031 187.945312 52.457031 C 193.328125 52.457031 197.691406 56.824219 197.691406 62.214844 Z M 197.691406 62.214844 "/>
<path style=" stroke:none;fill-rule:nonzero;fill:rgb(63.137255%,38.039216%,41.568627%);fill-opacity:1;" d="M 185.335938 76.753906 C 185.300781 77.511719 185.09375 78.253906 184.730469 78.921875 C 189.710938 78.164062 194.671875 77.316406 199.625 76.386719 C 197.984375 75.539062 196.742188 74.078125 196.171875 72.320312 C 195.902344 71.375 195.753906 70.402344 195.730469 69.421875 C 195.652344 67.867188 195.683594 66.308594 195.820312 64.757812 C 194.089844 64.941406 192.445312 65.589844 190.796875 66.148438 C 189.132812 66.710938 187.445312 67.183594 185.734375 67.566406 C 184.90625 67.75 184.078125 67.90625 183.242188 68.054688 C 182.269531 68.226562 181.800781 68.226562 182.476562 69.082031 C 184.292969 71.367188 185.589844 73.695312 185.335938 76.753906 Z M 185.335938 76.753906 "/>
<path style=" stroke:none;fill-rule:nonzero;fill:rgb(79.607843%,14.901961%,97.647059%);fill-opacity:1;" d="M 188.332031 75.449219 C 187.042969 75.640625 185.695312 75.859375 184.667969 76.65625 C 184.277344 76.992188 183.90625 77.347656 183.558594 77.726562 C 181.515625 79.707031 178.640625 80.503906 176.164062 81.902344 C 175.761719 82.101562 175.402344 82.382812 175.113281 82.730469 C 174.84375 83.105469 174.703125 83.585938 174.421875 83.960938 C 174.089844 84.394531 173.566406 84.664062 173.308594 85.144531 C 173.050781 85.625 173.109375 86.132812 173.082031 86.640625 C 173.019531 87.761719 172.597656 88.824219 172.269531 89.894531 C 170.765625 95.019531 171.589844 100.734375 169.316406 105.574219 C 169.527344 106.136719 169.960938 106.589844 170.511719 106.828125 C 171.085938 107.03125 171.683594 107.160156 172.289062 107.207031 L 177.328125 107.835938 C 178.046875 107.925781 178.8125 108.007812 179.46875 107.707031 C 178.867188 109.367188 178.441406 111.085938 178.199219 112.835938 C 178.078125 113.90625 177.886719 114.96875 177.632812 116.011719 C 176.9375 118.398438 175.195312 120.386719 173.128906 121.742188 C 172.867188 121.878906 172.648438 122.082031 172.492188 122.332031 C 172.222656 122.871094 172.621094 123.480469 172.90625 124.011719 C 173.730469 125.550781 173.617188 127.398438 173.609375 129.144531 C 173.597656 130.890625 173.773438 132.804688 174.992188 134.058594 C 175.710938 134.796875 176.699219 135.199219 177.65625 135.578125 L 185.539062 138.730469 C 186.839844 139.285156 188.179688 139.738281 189.550781 140.085938 C 191.628906 140.5625 193.789062 140.542969 195.917969 140.449219 C 197.328125 140.390625 198.734375 140.300781 200.136719 140.179688 C 200.695312 140.175781 201.246094 140.03125 201.734375 139.757812 C 202.152344 139.425781 202.476562 138.988281 202.667969 138.492188 C 203.761719 136.101562 204.132812 133.316406 205.832031 131.316406 C 207 129.941406 208.8125 128.84375 208.945312 127.046875 C 209.007812 126.15625 208.609375 125.285156 208.601562 124.386719 C 208.601562 123.285156 209.179688 122.234375 209.144531 121.136719 C 209.070312 119.34375 207.382812 117.976562 207.117188 116.207031 C 206.433594 111.710938 208.714844 107.226562 210.113281 102.902344 C 210.367188 102.128906 210.691406 101.277344 211.433594 100.945312 C 212.175781 100.613281 213.21875 100.789062 213.484375 100.058594 C 214.152344 98.21875 214.3125 96.066406 214.226562 94.109375 C 214.179688 92.980469 213.777344 91.875 213.824219 90.742188 C 213.855469 89.945312 214.109375 89.171875 214.179688 88.375 C 214.28125 87.175781 213.964844 85.984375 213.636719 84.824219 C 213.542969 84.410156 213.398438 84.007812 213.214844 83.625 C 213.015625 83.28125 212.777344 82.957031 212.511719 82.660156 L 211.191406 81.089844 C 210.574219 80.355469 209.921875 79.59375 209.023438 79.222656 C 208.734375 78.503906 207.808594 78.007812 207.144531 77.613281 C 206.476562 77.234375 205.785156 76.894531 205.078125 76.597656 L 197.617188 73.300781 C 197.339844 73.160156 197.042969 73.0625 196.734375 73.011719 C 196.28125 73 195.828125 73.089844 195.417969 73.285156 C 193.144531 74.1875 190.769531 75.085938 188.332031 75.449219 Z M 188.332031 75.449219 "/>
<path style=" stroke:none;fill-rule:nonzero;fill:rgb(27.45098%,26.27451%,32.54902%);fill-opacity:1;" d="M 180.433594 63.910156 C 180.144531 62.898438 179.410156 62.027344 179.300781 60.980469 C 179.199219 60.050781 179.609375 59.152344 179.839844 58.246094 C 180.074219 57.339844 180.066406 56.234375 179.347656 55.632812 C 179.230469 55.53125 179.078125 55.4375 179.035156 55.289062 C 178.949219 55.015625 179.222656 54.769531 179.304688 54.496094 C 179.460938 53.953125 178.789062 53.355469 179.035156 52.835938 C 179.171875 52.550781 179.519531 52.449219 179.824219 52.359375 C 180.980469 52.015625 182.15625 51.253906 182.410156 50.066406 C 183.316406 50.445312 184.28125 49.734375 184.976562 49.042969 C 185.675781 48.351562 186.53125 47.5625 187.488281 47.773438 L 187.273438 48.207031 C 188.753906 47.671875 190.371094 47.652344 191.859375 48.15625 L 191.40625 48.15625 C 192.710938 48.179688 193.980469 48.609375 195.03125 49.386719 C 194.914062 49.386719 194.902344 49.558594 194.949219 49.65625 C 195.328125 50.542969 196.304688 51.011719 197.242188 51.230469 C 197.808594 51.367188 198.421875 51.464844 198.835938 51.871094 C 199.253906 52.277344 199.261719 53.125 198.714844 53.320312 C 199.828125 53.753906 200.886719 54.328125 201.855469 55.027344 C 202.128906 55.226562 202.433594 55.492188 202.398438 55.839844 C 202.359375 56.015625 202.304688 56.183594 202.230469 56.347656 C 202.175781 56.636719 202.195312 56.933594 202.289062 57.214844 L 202.589844 58.457031 C 202.917969 59.835938 203.179688 61.496094 202.175781 62.496094 C 202.945312 63.941406 202.679688 65.71875 201.519531 66.875 C 201.683594 67.363281 201.625 67.902344 201.367188 68.347656 C 201.109375 68.792969 200.671875 69.105469 200.167969 69.207031 C 200.5 69.730469 200.195312 70.472656 199.667969 70.796875 C 199.144531 71.121094 198.484375 71.125 197.871094 71.066406 C 197.257812 71.011719 196.640625 70.871094 196.027344 70.964844 C 195.136719 71.101562 194.265625 71.710938 193.40625 71.4375 C 193.085938 71.300781 192.777344 71.136719 192.488281 70.945312 C 191.886719 70.625 191.1875 70.550781 190.523438 70.402344 C 189.386719 70.160156 188.308594 69.699219 187.34375 69.046875 C 186.707031 68.664062 186.199219 68.097656 185.886719 67.421875 C 185.289062 65.914062 186.292969 63.941406 185.238281 62.710938 C 184.621094 61.996094 183.398438 61.988281 182.707031 62.597656 C 182.363281 62.90625 182.316406 63.550781 181.957031 63.78125 C 181.460938 63.90625 180.945312 63.949219 180.433594 63.910156 Z M 180.433594 63.910156 "/>
<use xlink:href="#surface80" mask="url(#mask25)"/>
<path style=" stroke:none;fill-rule:nonzero;fill:rgb(33.72549%,33.72549%,38.039216%);fill-opacity:1;" d="M 220.753906 98.027344 C 220.753906 98.027344 214.980469 94.675781 207.359375 98.839844 C 199.738281 103.003906 198.46875 127.5 198.46875 127.5 C 198.46875 127.5 201.585938 152.457031 189.566406 146.902344 C 189.566406 146.902344 167.632812 140.085938 165.4375 141.589844 C 165.4375 141.589844 163.359375 141.589844 167.515625 142.511719 C 171.671875 143.4375 187.730469 148.527344 187.730469 148.527344 C 187.730469 148.527344 192.921875 150.34375 195.121094 148.527344 C 197.320312 146.710938 203.550781 148.761719 204.359375 136.277344 C 204.894531 128.414062 205.859375 120.582031 207.246094 112.820312 L 209.386719 106.464844 Z M 220.753906 98.027344 "/>
<path style=" stroke:none;fill-rule:nonzero;fill:rgb(100%,100%,100%);fill-opacity:1;" d="M 221.445312 136.625 C 221.445312 136.625 218.90625 111.316406 223.070312 102.1875 C 226.695312 94.230469 212.683594 97.953125 209.027344 99.035156 C 208.460938 99.203125 207.96875 99.558594 207.625 100.039062 C 205.457031 103.085938 197.6875 115.304688 199.976562 131.65625 C 199.976562 131.65625 200.902344 146.21875 195.128906 148.527344 L 212.917969 142.792969 C 214.359375 142.324219 215.824219 141.9375 217.304688 141.601562 C 219.1875 141.171875 222.257812 139.957031 221.445312 136.625 Z M 221.445312 136.625 "/>
<use xlink:href="#surface83" mask="url(#mask26)"/>
<path style=" stroke:none;fill-rule:nonzero;fill:rgb(32.54902%,32.941176%,38.039216%);fill-opacity:1;" d="M 267.230469 100.339844 L 268.929688 100.339844 L 268.929688 138.597656 L 267.230469 138.597656 Z M 267.230469 100.339844 "/>
<path style=" stroke:none;fill-rule:nonzero;fill:rgb(33.72549%,33.72549%,38.039216%);fill-opacity:1;" d="M 279.601562 138.480469 L 279.496094 140.207031 L 279.34375 142.644531 L 279.28125 143.660156 L 279.132812 146.097656 L 279.066406 147.109375 L 278.914062 149.550781 L 277.203125 177.210938 C 277.039062 179.675781 274.996094 181.589844 272.53125 181.589844 L 263.628906 181.589844 C 261.15625 181.589844 259.113281 179.664062 258.960938 177.195312 L 257.242188 149.53125 L 257.09375 147.09375 L 257.03125 146.078125 L 256.878906 143.640625 L 256.816406 142.625 L 256.667969 140.1875 L 256.558594 138.464844 C 256.519531 137.796875 256.757812 137.140625 257.214844 136.65625 C 257.671875 136.167969 258.3125 135.890625 258.980469 135.886719 L 277.183594 135.886719 C 277.851562 135.890625 278.492188 136.171875 278.949219 136.660156 C 279.410156 137.152344 279.644531 137.8125 279.601562 138.480469 Z M 279.601562 138.480469 "/>
<path style=" stroke:none;fill-rule:nonzero;fill:rgb(61.568627%,61.176471%,70.980392%);fill-opacity:1;" d="M 279.496094 140.207031 L 279.34375 142.636719 L 256.816406 142.636719 L 256.667969 140.207031 Z M 279.496094 140.207031 "/>
<path style=" stroke:none;fill-rule:nonzero;fill:rgb(61.568627%,61.176471%,70.980392%);fill-opacity:1;" d="M 279.28125 143.652344 L 279.132812 146.085938 L 257.03125 146.085938 L 256.878906 143.652344 Z M 279.28125 143.652344 "/>
<path style=" stroke:none;fill-rule:nonzero;fill:rgb(61.568627%,61.176471%,70.980392%);fill-opacity:1;" d="M 279.066406 147.101562 L 278.914062 149.53125 L 257.246094 149.53125 L 257.09375 147.101562 Z M 279.066406 147.101562 "/>
<path style=" stroke:none;fill-rule:nonzero;fill:rgb(79.607843%,14.901961%,97.647059%);fill-opacity:1;" d="M 254.070312 114.679688 C 263.960938 121.839844 268.082031 133.039062 268.082031 133.039062 C 268.082031 133.039062 256.164062 132.628906 246.273438 125.46875 C 236.382812 118.308594 232.265625 107.113281 232.265625 107.113281 C 232.265625 107.113281 244.183594 107.523438 254.070312 114.679688 Z M 254.070312 114.679688 "/>
<path style="fill:none;stroke-width:2;stroke-linecap:butt;stroke-linejoin:miter;stroke:rgb(32.54902%,32.941176%,38.039216%);stroke-opacity:1;stroke-miterlimit:10;" d="M 892.672929 476.178008 C 892.672929 476.178008 938.357033 501.532344 953.012875 522.519219 C 967.668716 543.506094 1024.936128 571.844141 1024.936128 571.844141 " transform="matrix(0.270796,0,0,0.271003,-9.467044,-21.932249)"/>
<path style=" stroke:none;fill-rule:nonzero;fill:rgb(79.607843%,14.901961%,97.647059%);fill-opacity:1;" d="M 260.453125 100.257812 C 265.839844 104.152344 268.082031 110.25 268.082031 110.25 C 268.082031 110.25 261.582031 110.023438 256.210938 106.128906 C 250.839844 102.234375 248.601562 96.136719 248.601562 96.136719 C 248.601562 96.136719 255.074219 96.359375 260.453125 100.257812 Z M 260.453125 100.257812 "/>
<path style="fill:none;stroke-width:2;stroke-linecap:butt;stroke-linejoin:miter;stroke:rgb(32.54902%,32.941176%,38.039216%);stroke-opacity:1;stroke-miterlimit:10;" d="M 952.99845 435.674492 C 952.99845 435.674492 977.852795 449.483164 985.829843 460.899102 C 993.80689 472.315039 1024.979404 487.7525 1024.979404 487.7525 " transform="matrix(0.270796,0,0,0.271003,-9.467044,-21.932249)"/>
<path style=" stroke:none;fill-rule:nonzero;fill:rgb(79.607843%,14.901961%,97.647059%);fill-opacity:1;" d="M 275.902344 109.9375 C 269.71875 116.738281 268.410156 125.625 268.410156 125.625 C 268.410156 125.625 277.128906 123.480469 283.304688 116.679688 C 289.480469 109.878906 290.792969 100.996094 290.792969 100.996094 C 290.792969 100.996094 282.082031 103.136719 275.902344 109.9375 Z M 275.902344 109.9375 "/>
<path style="fill:none;stroke-width:2;stroke-linecap:butt;stroke-linejoin:miter;stroke:rgb(32.54902%,32.941176%,38.039216%);stroke-opacity:1;stroke-miterlimit:10;" d="M 1108.832166 453.605586 C 1108.832166 453.605586 1079.087732 479.334688 1071.52901 497.04957 C 1063.970289 514.764453 1026.147832 544.48625 1026.147832 544.48625 " transform="matrix(0.270796,0,0,0.271003,-9.467044,-21.932249)"/>
<path style=" stroke:none;fill-rule:nonzero;fill:rgb(87.45098%,90.196078%,96.078431%);fill-opacity:1;" d="M 150.828125 93.570312 L 150.828125 94.1875 L 132.519531 94.1875 L 132.519531 93.6875 C 133.023438 93.496094 133.496094 93.242188 133.933594 92.933594 C 135.511719 91.800781 136.445312 89.980469 136.445312 88.039062 C 136.445312 87.539062 136.382812 87.039062 136.257812 86.554688 C 135.8125 84.789062 134.589844 83.324219 132.933594 82.5625 L 150.703125 82.5625 C 149.050781 83.324219 147.828125 84.789062 147.378906 86.554688 C 147.253906 87.039062 147.191406 87.539062 147.195312 88.039062 C 147.191406 89.980469 148.128906 91.800781 149.703125 92.933594 C 150.054688 93.183594 150.433594 93.398438 150.828125 93.570312 Z M 150.828125 93.570312 "/>
<use xlink:href="#surface86" mask="url(#mask27)"/>
<path style=" stroke:none;fill-rule:nonzero;fill:rgb(87.45098%,90.196078%,96.078431%);fill-opacity:1;" d="M 111.558594 79.40625 L 111.558594 82.886719 C 111.558594 84.804688 112.960938 86.363281 114.691406 86.363281 L 168.558594 86.363281 C 170.289062 86.363281 171.695312 84.804688 171.695312 82.886719 L 171.695312 79.40625 Z M 111.558594 79.40625 "/>
<use xlink:href="#surface89" mask="url(#mask28)"/>
<path style=" stroke:none;fill-rule:nonzero;fill:rgb(87.45098%,90.196078%,96.078431%);fill-opacity:1;" d="M 127.386719 93.125 L 155.960938 93.125 C 156.46875 93.125 156.878906 93.535156 156.878906 94.042969 C 156.878906 94.546875 156.46875 94.960938 155.960938 94.960938 L 127.386719 94.960938 C 126.882812 94.960938 126.46875 94.546875 126.46875 94.042969 C 126.46875 93.535156 126.882812 93.125 127.386719 93.125 Z M 127.386719 93.125 "/>
<path style=" stroke:none;fill-rule:nonzero;fill:rgb(27.843137%,25.490196%,34.117647%);fill-opacity:1;" d="M 171.695312 41.296875 C 171.695312 39.5625 170.289062 38.15625 168.558594 38.15625 L 114.691406 38.15625 C 113.859375 38.15625 113.0625 38.488281 112.476562 39.074219 C 111.886719 39.664062 111.554688 40.460938 111.558594 41.296875 L 111.558594 80.085938 L 171.695312 80.085938 Z M 171.695312 41.296875 "/>
<path style=" stroke:none;fill-rule:nonzero;fill:rgb(29.803922%,29.803922%,47.058824%);fill-opacity:1;" d="M 170.054688 42.695312 L 170.054688 76.03125 C 170.054688 76.441406 169.894531 76.832031 169.605469 77.125 C 169.3125 77.414062 168.921875 77.578125 168.511719 77.578125 L 114.742188 77.578125 C 114.332031 77.578125 113.9375 77.414062 113.648438 77.125 C 113.359375 76.832031 113.199219 76.441406 113.199219 76.03125 L 113.199219 42.695312 C 113.195312 42.425781 113.269531 42.160156 113.402344 41.925781 C 113.679688 41.445312 114.191406 41.152344 114.742188 41.152344 L 168.511719 41.152344 C 169.363281 41.152344 170.054688 41.84375 170.054688 42.695312 Z M 170.054688 42.695312 "/>
<path style=" stroke:none;fill-rule:nonzero;fill:rgb(100%,100%,100%);fill-opacity:1;" d="M 142.347656 39.652344 C 142.347656 40.054688 142.027344 40.375 141.625 40.375 C 141.226562 40.375 140.902344 40.054688 140.902344 39.652344 C 140.902344 39.253906 141.226562 38.929688 141.625 38.929688 C 142.027344 38.929688 142.347656 39.253906 142.347656 39.652344 Z M 142.347656 39.652344 "/>
<path style=" stroke:none;fill-rule:nonzero;fill:rgb(100%,100%,100%);fill-opacity:1;" d="M 143.410156 83.03125 C 143.410156 84.015625 142.613281 84.816406 141.625 84.816406 C 140.640625 84.816406 139.84375 84.015625 139.84375 83.03125 C 139.84375 82.042969 140.640625 81.242188 141.625 81.242188 C 142.613281 81.242188 143.410156 82.042969 143.410156 83.03125 Z M 143.410156 83.03125 "/>
<path style=" stroke:none;fill-rule:nonzero;fill:rgb(78.431373%,79.215686%,84.313725%);fill-opacity:1;" d="M 170.054688 42.695312 L 113.203125 42.695312 C 113.203125 41.84375 113.894531 41.152344 114.746094 41.152344 L 168.511719 41.152344 C 169.363281 41.152344 170.054688 41.84375 170.054688 42.695312 Z M 170.054688 42.695312 "/>
<path style=" stroke:none;fill-rule:nonzero;fill:rgb(92.941176%,92.941176%,95.686275%);fill-opacity:1;" d="M 115.128906 41.925781 C 115.128906 42.136719 114.957031 42.3125 114.742188 42.3125 C 114.527344 42.3125 114.355469 42.136719 114.355469 41.925781 C 114.355469 41.710938 114.527344 41.535156 114.742188 41.535156 C 114.957031 41.535156 115.128906 41.710938 115.128906 41.925781 Z M 115.128906 41.925781 "/>
<path style=" stroke:none;fill-rule:nonzero;fill:rgb(92.941176%,92.941176%,95.686275%);fill-opacity:1;" d="M 116.289062 41.925781 C 116.289062 42.136719 116.113281 42.3125 115.902344 42.3125 C 115.6875 42.3125 115.511719 42.136719 115.511719 41.925781 C 115.511719 41.710938 115.6875 41.535156 115.902344 41.535156 C 116.113281 41.535156 116.289062 41.710938 116.289062 41.925781 Z M 116.289062 41.925781 "/>
<path style=" stroke:none;fill-rule:nonzero;fill:rgb(92.941176%,92.941176%,95.686275%);fill-opacity:1;" d="M 117.445312 41.925781 C 117.445312 42.136719 117.273438 42.3125 117.058594 42.3125 C 116.847656 42.3125 116.671875 42.136719 116.671875 41.925781 C 116.671875 41.710938 116.847656 41.535156 117.058594 41.535156 C 117.273438 41.535156 117.445312 41.710938 117.445312 41.925781 Z M 117.445312 41.925781 "/>
</g>
</svg>
