<?xml version="1.0" encoding="UTF-8"?>
<svg xmlns="http://www.w3.org/2000/svg" xmlns:xlink="http://www.w3.org/1999/xlink" width="311pt" height="250pt" viewBox="0 0 311 250" version="1.1">
<g id="surface1">
<path style=" stroke:none;fill-rule:nonzero;fill:rgb(24.705882%,23.921569%,33.72549%);fill-opacity:1;" d="M 0 232.40625 L 310.839844 232.40625 L 310.839844 233.128906 L 0 233.128906 Z M 0 232.40625 "/>
<path style=" stroke:none;fill-rule:nonzero;fill:rgb(100%,72.156863%,72.156863%);fill-opacity:1;" d="M 195.027344 108.464844 C 195.027344 108.464844 181.085938 119.433594 188.058594 121.925781 C 195.027344 124.417969 199.507812 112.953125 199.507812 112.953125 Z M 195.027344 108.464844 "/>
<path style=" stroke:none;fill-rule:nonzero;fill:rgb(81.176471%,80%,87.843137%);fill-opacity:1;" d="M 195.527344 104.476562 L 192.539062 109.464844 C 192.539062 109.464844 197.519531 109.464844 198.515625 116.941406 L 202.496094 111.957031 Z M 195.527344 104.476562 "/>
<path style=" stroke:none;fill-rule:nonzero;fill:rgb(100%,72.156863%,72.156863%);fill-opacity:1;" d="M 261.753906 218.144531 L 262.25 233.101562 L 256.277344 236.589844 L 253.785156 235.09375 L 254.285156 218.144531 Z M 261.753906 218.144531 "/>
<path style=" stroke:none;fill-rule:nonzero;fill:rgb(100%,72.156863%,72.156863%);fill-opacity:1;" d="M 226.398438 214.15625 L 227.394531 230.109375 L 213.453125 236.089844 L 214.449219 227.617188 C 214.449219 227.617188 218.433594 221.136719 217.4375 214.15625 Z M 226.398438 214.15625 "/>
<path style=" stroke:none;fill-rule:nonzero;fill:rgb(18.431373%,18.039216%,25.490196%);fill-opacity:1;" d="M 247.808594 94.007812 C 247.808594 94.007812 255.777344 114.945312 257.273438 127.910156 C 258.765625 140.871094 261.253906 175.269531 261.253906 175.269531 L 266.234375 219.640625 L 252.292969 221.632812 L 246.316406 176.765625 L 232.871094 132.394531 L 229.882812 176.765625 L 227.394531 217.148438 L 214.449219 217.644531 L 213.453125 175.769531 L 207.976562 122.425781 L 210.960938 97 Z M 247.808594 94.007812 "/>
<path style=" stroke:none;fill-rule:nonzero;fill:rgb(18.431373%,18.039216%,25.490196%);fill-opacity:1;" d="M 255.28125 234.097656 C 255.28125 234.097656 256.097656 225.722656 262.160156 230.410156 L 263.246094 229.609375 L 268.226562 240.578125 C 268.226562 240.578125 274.203125 249.054688 263.746094 250.050781 C 253.289062 251.046875 254.285156 240.578125 254.285156 240.578125 L 253.289062 236.089844 L 253.785156 233.152344 Z M 255.28125 234.097656 "/>
<path style=" stroke:none;fill-rule:nonzero;fill:rgb(18.431373%,18.039216%,25.490196%);fill-opacity:1;" d="M 226.398438 224.125 C 228.894531 225.554688 230.421875 228.226562 230.382812 231.105469 C 230.382812 236.089844 229.882812 236.589844 229.882812 236.589844 L 222.414062 238.585938 C 222.414062 238.585938 217.4375 238.085938 214.449219 241.078125 C 211.460938 244.066406 196.523438 246.0625 196.523438 242.074219 C 196.523438 238.085938 208.96875 231.605469 208.96875 231.605469 C 208.96875 231.605469 212.667969 225.355469 215.300781 225.988281 C 217.933594 226.621094 218.929688 227.617188 218.929688 228.113281 C 218.929688 228.613281 217.4375 232.101562 217.4375 232.101562 C 217.4375 232.101562 225.902344 230.109375 226.398438 224.125 Z M 226.398438 224.125 "/>
<path style=" stroke:none;fill-rule:nonzero;fill:rgb(100%,72.156863%,72.156863%);fill-opacity:1;" d="M 237.851562 20.226562 C 237.851562 27.109375 232.277344 32.6875 225.402344 32.6875 C 218.527344 32.6875 212.953125 27.109375 212.953125 20.226562 C 212.953125 13.339844 218.527344 7.761719 225.402344 7.761719 C 232.277344 7.761719 237.851562 13.339844 237.851562 20.226562 Z M 237.851562 20.226562 "/>
<path style=" stroke:none;fill-rule:nonzero;fill:rgb(100%,72.156863%,72.156863%);fill-opacity:1;" d="M 234.613281 23.464844 L 240.09375 35.929688 L 225.152344 57.367188 C 225.152344 57.367188 224.15625 33.933594 221.171875 29.945312 C 218.183594 25.957031 234.613281 23.464844 234.613281 23.464844 Z M 234.613281 23.464844 "/>
<path style=" stroke:none;fill-rule:nonzero;fill:rgb(81.176471%,80%,87.843137%);fill-opacity:1;" d="M 227.644531 49.390625 L 230.132812 42.910156 L 232.125 43.40625 L 234.613281 41.414062 L 238.101562 30.445312 L 243.078125 33.933594 L 249.554688 99.242188 L 209.21875 100.238281 L 214.695312 54.875 L 219.675781 41.910156 L 223.269531 37.152344 L 225.652344 44.402344 Z M 227.644531 49.390625 "/>
<path style=" stroke:none;fill-rule:nonzero;fill:rgb(34.117647%,35.294118%,53.72549%);fill-opacity:1;" d="M 239.097656 77.308594 L 240.621094 32.210938 C 240.621094 32.210938 243.578125 32.4375 244.574219 33.933594 C 245.570312 35.429688 262.003906 38.421875 262.003906 38.421875 L 259.015625 84.785156 C 259.015625 84.785156 271.464844 121.675781 266.980469 123.671875 C 262.5 125.664062 254.53125 125.167969 254.53125 125.167969 Z M 239.097656 77.308594 "/>
<path style=" stroke:none;fill-rule:nonzero;fill:rgb(34.117647%,35.294118%,53.72549%);fill-opacity:1;" d="M 214.945312 71.574219 L 220.226562 41.179688 L 208.472656 49.140625 L 211.460938 71.074219 L 208.96875 86.03125 C 208.96875 86.03125 199.507812 127.410156 202.496094 128.90625 C 205.484375 130.402344 208.96875 128.90625 208.96875 128.90625 L 214.945312 87.027344 Z M 214.945312 71.574219 "/>
<path style=" stroke:none;fill-rule:nonzero;fill:rgb(34.117647%,35.294118%,53.72549%);fill-opacity:1;" d="M 211.957031 48.144531 L 208.472656 49.140625 L 206.980469 69.082031 L 204.488281 86.53125 L 192.539062 107.96875 C 192.539062 107.96875 198.515625 103.980469 201.003906 115.445312 L 214.164062 92.503906 Z M 211.957031 48.144531 "/>
<path style=" stroke:none;fill-rule:nonzero;fill:rgb(100%,72.156863%,72.156863%);fill-opacity:1;" d="M 250.796875 104.476562 C 250.796875 104.476562 236.855469 115.445312 243.828125 117.9375 C 250.796875 120.429688 255.28125 108.964844 255.28125 108.964844 Z M 250.796875 104.476562 "/>
<path style=" stroke:none;fill-rule:nonzero;fill:rgb(81.176471%,80%,87.843137%);fill-opacity:1;" d="M 259.261719 109.960938 L 254.78125 115.445312 L 248.804688 104.976562 L 251.296875 100.488281 Z M 259.261719 109.960938 "/>
<path style=" stroke:none;fill-rule:nonzero;fill:rgb(34.117647%,35.294118%,53.72549%);fill-opacity:1;" d="M 258.265625 40.167969 L 262.25 38.171875 C 262.25 38.171875 265.238281 42.160156 265.738281 45.648438 C 266.234375 49.140625 268.722656 53.625 268.722656 56.121094 C 268.722656 58.613281 275.695312 82.042969 275.695312 82.042969 L 259.761719 114.449219 C 259.761719 114.449219 256.277344 102.484375 248.804688 101.488281 L 261.253906 84.039062 L 254.285156 71.574219 Z M 258.265625 40.167969 "/>
<path style=" stroke:none;fill-rule:nonzero;fill:rgb(18.431373%,18.039216%,25.490196%);fill-opacity:1;" d="M 235.824219 8.351562 L 238.171875 7.410156 C 238.171875 7.410156 233.261719 2 226.433594 2.46875 L 228.355469 0.351562 C 228.355469 0.351562 223.660156 -1.53125 219.390625 3.410156 C 217.148438 6.007812 214.550781 9.058594 212.933594 12.496094 L 210.421875 12.496094 L 211.46875 14.808594 L 207.796875 17.125 L 211.566406 16.707031 C 211.339844 17.976562 211.308594 19.269531 211.464844 20.542969 C 211.625 21.820312 212.277344 22.984375 213.28125 23.792969 C 213.28125 23.792969 216.191406 17.757812 216.191406 16.816406 L 216.191406 19.171875 C 216.191406 19.171875 218.539062 17.054688 218.539062 15.640625 L 219.820312 17.289062 L 220.460938 14.699219 L 228.355469 17.289062 L 227.074219 15.171875 L 231.984375 15.875 L 230.0625 13.289062 C 230.0625 13.289062 235.609375 16.347656 235.824219 18.933594 C 236.039062 21.523438 237.660156 23.972656 237.660156 23.972656 C 237.660156 23.972656 242.011719 11.878906 235.824219 8.351562 Z M 235.824219 8.351562 "/>
<path style=" stroke:none;fill-rule:nonzero;fill:rgb(100%,72.156863%,72.156863%);fill-opacity:1;" d="M 237.003906 18.230469 C 237.003906 17.265625 236.378906 16.484375 235.609375 16.484375 C 234.839844 16.484375 234.214844 17.265625 234.214844 18.230469 C 234.214844 19.195312 234.839844 19.976562 235.609375 19.976562 C 236.378906 19.976562 237.003906 19.195312 237.003906 18.230469 Z M 237.003906 18.230469 "/>
<path style=" stroke:none;fill-rule:nonzero;fill:rgb(96.078431%,0%,34.117647%);fill-opacity:1;" d="M 57.621094 102.75 L 14.632812 102.75 L 14.632812 90.691406 L 37.070312 90.691406 Z M 57.621094 102.75 "/>
<path style=" stroke:none;fill-rule:nonzero;fill:rgb(24.705882%,23.921569%,33.72549%);fill-opacity:1;" d="M 14.515625 101.097656 L 14.515625 136.328125 L 154.101562 136.328125 L 154.101562 101.097656 Z M 68.957031 130.417969 L 23.609375 130.417969 L 23.609375 125.453125 L 68.957031 125.453125 Z M 145.007812 121.195312 L 23.609375 121.195312 L 23.609375 116.230469 L 145.007812 116.230469 Z M 145.007812 111.972656 L 23.609375 111.972656 L 23.609375 107.007812 L 145.007812 107.007812 Z M 145.007812 111.972656 "/>
<path style=" stroke:none;fill-rule:nonzero;fill:rgb(96.078431%,0%,34.117647%);fill-opacity:1;" d="M 57.621094 45.765625 L 14.632812 45.765625 L 14.632812 33.703125 L 37.070312 33.703125 Z M 57.621094 45.765625 "/>
<path style=" stroke:none;fill-rule:nonzero;fill:rgb(24.705882%,23.921569%,33.72549%);fill-opacity:1;" d="M 14.515625 44.816406 L 14.515625 80.050781 L 154.101562 80.050781 L 154.101562 44.816406 Z M 68.957031 74.140625 L 23.609375 74.140625 L 23.609375 69.171875 L 68.957031 69.171875 Z M 95.171875 64.917969 L 23.609375 64.917969 L 23.609375 59.953125 L 95.171875 59.953125 Z M 145.007812 55.695312 L 23.609375 55.695312 L 23.609375 50.730469 L 145.007812 50.730469 Z M 145.007812 55.695312 "/>
<path style=" stroke:none;fill-rule:nonzero;fill:rgb(96.078431%,0%,34.117647%);fill-opacity:1;" d="M 57.621094 158.554688 L 14.632812 158.554688 L 14.632812 146.496094 L 37.070312 146.496094 Z M 57.621094 158.554688 "/>
<path style=" stroke:none;fill-rule:nonzero;fill:rgb(24.705882%,23.921569%,33.72549%);fill-opacity:1;" d="M 14.515625 156.191406 L 14.515625 191.425781 L 154.101562 191.425781 L 154.101562 156.191406 Z M 95.171875 185.511719 L 23.609375 185.511719 L 23.609375 180.546875 L 95.171875 180.546875 Z M 95.171875 176.292969 L 23.609375 176.292969 L 23.609375 171.324219 L 95.171875 171.324219 Z M 145.007812 167.070312 L 23.609375 167.070312 L 23.609375 162.105469 L 145.007812 162.105469 Z M 145.007812 167.070312 "/>
<path style=" stroke:none;fill-rule:nonzero;fill:rgb(24.705882%,23.921569%,33.72549%);fill-opacity:1;" d="M 193.660156 72.246094 L 173.820312 72.246094 L 173.820312 52.382812 L 187.285156 52.382812 L 187.285156 52.859375 L 174.292969 52.859375 L 174.292969 71.773438 L 193.1875 71.773438 L 193.1875 62.316406 L 193.660156 62.316406 Z M 193.660156 72.246094 "/>
<path style=" stroke:none;fill-rule:nonzero;fill:rgb(96.078431%,0%,34.117647%);fill-opacity:1;" d="M 183.636719 67.066406 C 183.179688 65.710938 177.429688 61.105469 180.953125 60.328125 L 183.84375 64.1875 L 197.125 50.886719 L 198.460938 52.226562 Z M 183.636719 67.066406 "/>
<path style=" stroke:none;fill-rule:nonzero;fill:rgb(24.705882%,23.921569%,33.72549%);fill-opacity:1;" d="M 193.660156 128.527344 L 173.820312 128.527344 L 173.820312 108.664062 L 187.285156 108.664062 L 187.285156 109.136719 L 174.292969 109.136719 L 174.292969 128.054688 L 193.1875 128.054688 L 193.1875 118.59375 L 193.660156 118.59375 Z M 193.660156 128.527344 "/>
<path style=" stroke:none;fill-rule:nonzero;fill:rgb(96.078431%,0%,34.117647%);fill-opacity:1;" d="M 183.636719 123.34375 C 183.179688 121.988281 177.429688 117.382812 180.953125 116.609375 L 183.84375 120.464844 L 197.125 107.167969 L 198.460938 108.503906 Z M 183.636719 123.34375 "/>
<path style=" stroke:none;fill-rule:nonzero;fill:rgb(24.705882%,23.921569%,33.72549%);fill-opacity:1;" d="M 193.660156 184.566406 L 173.820312 184.566406 L 173.820312 164.703125 L 187.285156 164.703125 L 187.285156 165.175781 L 174.292969 165.175781 L 174.292969 184.09375 L 193.1875 184.09375 L 193.1875 174.636719 L 193.660156 174.636719 Z M 193.660156 184.566406 "/>
<path style=" stroke:none;fill-rule:nonzero;fill:rgb(96.078431%,0%,34.117647%);fill-opacity:1;" d="M 183.636719 179.386719 C 183.179688 178.03125 177.429688 173.425781 180.953125 172.648438 L 183.84375 176.507812 L 197.125 163.207031 L 198.460938 164.546875 Z M 183.636719 179.386719 "/>
</g>
</svg>
